<svg width="300" height="300" viewBox="0 0 300 300" fill="none" xmlns="http://www.w3.org/2000/svg">
<rect width="300" height="300" rx="20" transform="matrix(1 0 0 -1 0 300)" fill="#FFEBCD"/>
<mask id="mask0_615_594" style="mask-type:luminance" maskUnits="userSpaceOnUse" x="0" y="0" width="300" height="300">
<path d="M0 10C0 4.47717 4.47715 5.24521e-06 10 5.24521e-06H290C295.523 5.24521e-06 300 4.47716 300 10V290C300 295.523 295.523 300 290 300H10C4.47716 300 0 295.523 0 290V10Z" fill="white"/>
</mask>
<g mask="url(#mask0_615_594)">
<path d="M247.996 196.438C247.983 195.309 248.094 194.413 248.24 193.509C248.73 190.468 249.46 187.482 250.128 184.48C250.34 183.53 249.968 182.557 249.827 181.6C249.637 180.305 249.408 179.011 250.34 177.868C250.728 177.391 250.472 176.895 250.381 176.385C250.164 175.16 250.159 173.976 250.696 172.768C251.14 171.769 251.3 170.65 250.648 169.591C250.04 168.604 250.061 167.444 250.043 166.372C249.992 163.352 249.765 160.321 250.257 157.309C250.34 156.803 250.29 156.277 250.06 155.782C248.774 153.028 248.486 150.026 248.23 147.08C248.106 145.665 247.867 144.573 247.045 143.387C246.315 142.335 246.342 140.013 245.294 139.021C245.103 138.841 245.023 138.363 245.112 138.096C245.564 136.76 244.812 135.685 244.059 134.937C242.98 133.867 242.841 132.376 241.939 131.274C241.693 130.973 241.611 130.529 241.845 130.173C242.115 129.758 242.568 129.911 242.912 130.039C244.454 130.615 245.977 130.202 247.462 129.884C248.138 129.739 248.58 130.062 249.125 130.177C249.38 130.231 249.634 130.418 249.586 130.712C249.304 132.416 250.19 133.62 251.265 134.756C251.396 134.896 251.564 135.074 251.575 135.244C251.728 137.532 253.459 140.183 253.364 142.533C253.343 143.021 253.599 143.407 253.805 143.805C254.349 144.865 254.814 145.92 254.365 147.153C254.285 147.372 254.268 147.736 254.395 147.889C255.694 149.438 255.607 151.49 255.885 153.234C256.162 154.976 257.229 156.792 256.391 158.685C256.297 158.897 256.39 159.198 256.419 159.456C256.848 163.296 256.595 167.142 256.514 170.986C256.505 171.437 256.383 171.895 256.602 172.328C257.802 174.705 257.43 177.028 256.552 179.425C256.147 180.532 256.008 181.918 256.187 182.988C256.549 185.155 256.076 187.08 255.426 189.037C255.191 189.743 255.049 190.404 255.367 191.109C255.882 192.254 255.623 193.308 254.811 194.173C254.157 194.869 254.057 195.605 254.15 196.496C254.259 197.53 254.073 198.501 253.656 199.514C253.153 200.733 253.288 202.141 252.671 203.41C251.902 204.989 252.063 207.003 250.433 208.191C250.349 209.324 249.521 210.2 249.303 211.229C249.094 212.214 248.7 213.017 248.245 213.883C247.081 216.092 245.68 218.191 244.925 220.605C244.743 221.185 244.363 221.647 243.803 221.895C242.455 222.494 241.912 223.559 241.914 224.98C241.915 225.589 241.689 226.152 241.26 226.566C240.157 227.629 239.481 229.048 238.011 229.846C237.145 230.316 236.257 231.175 236.046 232.389C235.903 233.213 235.286 233.721 234.578 234.113C234.073 234.392 233.491 234.573 233.222 235.163C231.905 238.041 229.252 239.666 227.064 241.728C226.688 242.083 226.149 242.405 226.011 242.845C225.549 244.313 224.353 245.12 223.371 246.14C222.666 246.874 221.991 247.779 221.272 248.345C219.907 249.42 218.9 251.017 217.495 251.757C215.583 252.766 214.33 254.373 212.699 255.535C211.188 256.612 209.922 258.375 207.609 258.321C206.521 258.296 205.273 258.907 204.519 259.819C203.586 260.946 202.381 261.264 201.087 261.377C200.05 261.468 199.178 261.654 198.663 262.677C198.458 263.084 198.011 263.565 197.619 263.461C195.723 262.955 194.766 265.314 193.07 264.95C191.798 264.677 190.822 264.791 189.882 265.681C189.506 266.037 188.943 266.2 188.42 266.128C186.205 265.826 184.278 266.951 182.201 267.32C179.177 267.855 176.217 268.728 173.073 268.601C171.78 268.548 170.392 268.563 169.091 269.123C168.408 269.417 167.603 269.621 166.81 269.492C166.393 269.425 166.023 269.477 165.714 269.745C164.968 270.391 164.036 270.234 163.188 270.443C161.535 270.848 160.011 271.395 158.48 270.181C158.363 270.088 157.985 270.247 157.77 270.366C155.288 271.725 152.686 271.349 150.054 271.001C148.014 270.732 145.937 270.616 143.909 271.091C142.986 271.308 142.164 271.371 141.257 271.025C139.905 270.51 138.527 270.542 137.06 270.723C135.143 270.959 133.214 270.467 131.422 269.702C130.615 269.358 129.906 269.047 129.027 269.493C128.368 269.828 127.634 269.753 126.939 269.491C124.453 268.554 121.862 268.054 119.244 267.681C117.457 267.428 115.822 266.418 113.943 266.628C113.883 266.634 113.805 266.615 113.757 266.579C112.639 265.748 111.192 265.699 110.035 265.139C107.676 263.999 104.942 263.858 102.789 262.152C101.819 261.382 100.404 261.264 99.2272 260.718C97.997 260.148 96.9449 258.954 95.3419 259.388C95.154 259.438 94.8446 259.222 94.6551 259.057C93.1646 257.756 91.2876 257.248 89.5215 256.506C88.8076 256.207 87.9744 255.964 87.5223 255.336C86.4461 253.841 84.7955 253.465 83.231 252.89C82.9291 252.778 82.548 252.754 82.3351 252.551C80.5676 250.872 78.3653 249.941 76.2212 248.9C75.6763 248.636 75.3042 248.139 75.2031 247.536C75.0634 246.698 74.6446 246.25 73.7721 246.284C73.0015 246.314 72.4997 245.784 71.8755 245.462C69.7042 244.343 68.1616 242.486 66.3034 241.007C66.151 240.885 65.9336 240.809 65.8408 240.655C64.2423 237.99 60.9359 236.864 59.7223 233.857C58.4159 232.988 57.4831 231.751 56.5004 230.566C55.5925 229.469 54.6038 228.444 53.9155 227.167C53.4929 226.382 52.9917 225.584 51.9766 225.379C51.8015 225.343 51.5646 225.203 51.508 225.053C50.8906 223.411 49.4551 222.364 48.554 220.952C47.7646 219.715 47.2702 218.289 46.2702 217.167C46.2272 217.119 46.1593 217.064 46.1585 217.01C46.1095 215.071 44.6227 213.493 44.751 211.526C44.8333 210.259 44.5963 209.296 43.3646 208.594C42.145 207.899 42.0959 206.519 42.1027 205.293C42.1072 204.468 42.0763 203.773 41.4317 203.177C41.2091 202.972 41.0227 202.616 41.0061 202.318C40.8891 200.231 39.8106 198.383 39.5736 196.316C39.4506 195.248 38.9691 194.219 38.631 193.178C38.3548 192.327 38.3367 191.494 38.8982 190.765C39.3925 190.124 39.434 189.561 39.0853 188.802C38.6566 187.868 38.4725 186.87 38.631 185.774C38.7955 184.636 38.3857 183.457 38.0906 182.387C37.6702 180.859 37.8997 179.302 37.4974 177.777C37.2732 176.928 37.72 175.873 37.9616 174.936C38.2906 173.665 38.4265 172.39 38.2348 171.095C38.1329 170.403 38.317 169.795 38.6612 169.24C39.2378 168.308 39.5532 167.373 39.0717 166.296C38.908 165.93 38.8816 165.48 39.1004 165.16C40.3842 163.277 40.4906 160.981 40.8536 158.909C41.2755 156.499 42.2997 154.379 42.9917 152.113C43.1555 151.577 43.1495 151.119 43.0227 150.603C42.7616 149.539 43.0793 148.645 44.0204 148.082C44.8748 147.572 45.1321 146.964 44.8808 145.975C44.6348 145.006 45.1223 144.018 45.4106 143.151C46.0016 141.378 46.4053 139.577 47.9042 138.047C49.1412 136.785 49.637 134.714 50.6831 133.12C50.2717 131.078 50.954 129.478 52.5661 128.188C52.8061 127.995 52.7812 127.459 52.8559 127.077C52.9608 126.54 53.1978 126.062 53.674 125.804C55.3646 124.887 56.1102 122.997 56.7223 121.223C57.4272 119.181 58.9782 117.407 61.1449 116.653C62.2015 116.286 63.4672 116.597 64.5744 116.988C64.9827 117.133 65.2687 117.583 65.3291 118.063C65.4514 119.037 64.4846 120.972 63.5087 121.228C62.4582 121.504 62.0589 122.641 61.8717 123.44C61.5329 124.881 60.9117 126.139 59.7751 127.086C59.0838 127.663 58.8785 128.505 58.4612 129.224C58.037 129.955 57.7472 130.752 56.9472 131.189C56.5782 131.391 56.4642 131.747 56.3714 132.148C56.0121 133.711 55.8144 135.277 54.8559 136.711C54.3487 137.471 54.0514 138.619 53.8559 139.536C53.4257 141.549 51.8589 142.86 51.2317 144.691C51.1291 144.991 50.7834 145.264 50.7932 145.54C50.8929 148.299 49.3661 150.738 49.2687 153.445C49.237 154.331 48.8944 155.056 48.4846 155.81C47.7472 157.165 46.8891 158.504 47.3117 160.194C47.4219 160.637 47.2793 161.117 47.0031 161.494C46.1812 162.616 46.1517 163.916 46.1125 165.22C46.0476 167.352 45.551 169.388 45.08 171.467C44.674 173.262 43.5472 175.112 44.3804 177.133C44.5359 177.511 44.4167 178.039 44.3216 178.476C44.0914 179.533 44.191 180.557 44.6151 181.525C45.1902 182.837 44.9714 184.341 45.6778 185.622C45.8129 185.867 45.7781 186.297 45.6597 186.573C45.3231 187.355 45.3631 188.051 45.8098 188.785C46.1246 189.302 46.2212 189.962 45.8793 190.467C45.1985 191.471 45.591 192.382 46.1042 193.186C46.8212 194.311 47.0159 195.442 46.7087 196.712C46.588 197.213 46.4182 197.819 46.8898 198.182C48.3985 199.348 48.1019 201.114 48.3827 202.653C48.5495 203.57 48.5427 204.454 49.4431 205C49.5487 205.065 49.6687 205.182 49.6921 205.293C50.0906 207.236 51.1917 208.97 51.4204 210.945C51.4823 211.475 51.4514 211.906 51.8672 212.321C53.2031 213.653 53.988 215.237 53.951 217.176C53.9397 217.78 54.2506 218.31 54.585 218.783C55.3223 219.826 56.0574 220.937 56.8732 221.842C57.9736 223.064 59.0936 224.159 59.5472 225.781C59.5804 225.899 59.6672 226.019 59.7616 226.102C61.5457 227.69 63.1457 229.447 64.6966 231.265C65.9366 232.717 67.56 233.792 68.9095 235.17C69.8378 236.119 71.1412 236.696 71.597 238.093C73.0725 238.316 73.7163 239.839 75.1132 240.277C76.4604 240.7 77.7502 241.542 78.588 242.625C79.7555 244.133 81.2544 245.133 82.8551 245.917C84.1578 246.556 85.3978 247.462 86.9646 247.551C88.1072 247.616 88.1849 249.075 89.037 249.422C89.8363 249.748 90.8317 249.506 91.514 250.305C93.2091 252.291 95.5948 252.944 97.9948 253.471C98.9193 253.675 99.7721 253.859 100.352 254.65C100.788 255.245 101.297 255.472 102.032 255.226C102.774 254.979 103.435 255.252 104.029 255.708C105.55 256.878 107.381 257.234 109.141 257.857C111.374 258.647 113.905 258.507 115.89 260.016C118.842 260.279 121.374 262.41 124.512 261.909C125.85 261.696 127.067 262.317 128.215 262.896C128.832 263.208 129.423 263.523 130.041 263.244C131.949 262.385 133.589 263.385 135.246 263.98C136.743 264.518 138.111 265.124 139.674 264.138C140.492 263.622 141.463 264.062 142.349 264.187C143.244 264.313 144.207 264.233 145.012 264.418C147.115 264.899 149.15 264.629 151.238 264.604C153.624 264.575 155.996 264.989 158.334 264.124C159.533 263.679 160.833 264.54 161.947 264.191C163.022 263.855 163.959 263.292 165.182 263.138C166.612 262.957 168.172 263.379 169.518 262.494C169.751 262.341 170.16 262.385 170.473 262.433C172.561 262.754 174.524 262.11 176.546 261.804C178.248 261.545 179.794 260.664 181.633 260.869C183.159 261.04 184.632 260.179 186.089 259.743C188.429 259.043 190.902 258.693 193.091 257.484C193.453 257.284 193.982 257.347 194.432 257.357C195.432 257.382 196.374 257.336 197.043 256.41C197.218 256.167 197.558 256.011 197.852 255.89C200.59 254.765 203.127 253.253 205.696 251.807C206.219 251.512 206.757 251.331 207.326 251.194C210.028 250.547 212.041 248.977 213.463 246.614C213.596 246.393 213.712 246.093 213.917 245.994C216.752 244.618 218.122 241.748 220.352 239.779C221.294 238.949 222.336 238.148 223.316 237.339C224.437 236.413 225.368 235.189 226.166 233.955C227.389 232.063 229.103 230.681 230.842 229.393C231.753 228.718 232.519 227.959 233.177 227.123C235.248 224.486 237.289 221.816 239.172 219.044C240.324 217.348 241.593 215.537 242.031 213.601C242.54 211.35 243.874 209.552 244.514 207.475C245.058 205.709 245.503 203.954 246.257 202.237C246.645 201.354 246.77 200.281 247.3 199.385C247.879 198.409 248.206 197.373 247.996 196.438Z" fill="#EC6732"/>
<path d="M149.891 38.2487C150.333 37.4321 149.922 37.0034 149.181 36.5876C148.503 36.2072 146.36 35.0993 145.584 34.9446C145.457 34.9189 145.337 34.8623 145.211 34.8314C144.856 34.7431 144.488 34.4004 144.14 34.7815C143.766 35.1906 143.914 35.6502 144.186 36.0351C144.863 36.9921 144.925 37.9536 144.281 38.9378C143.986 39.3883 144.08 39.8057 144.347 40.208C145.017 41.2193 145.133 42.3687 145.318 43.5325C145.581 45.1906 146.077 46.8125 146.827 48.3219C147.395 49.4676 147.628 50.6321 147.516 51.8948C147.431 52.8495 147.299 53.7861 147.81 54.7242C148.111 55.2766 148.017 56.0155 147.862 56.6427C147.258 59.0925 148.351 61.5838 147.649 64.0246C148.36 65.6419 147.947 67.3619 148.019 69.0238C148.078 70.3793 147.232 71.7121 147.801 73.1566C147.901 73.411 147.564 73.8691 147.371 74.1997C147.176 74.5363 146.908 74.8381 146.897 75.248C146.87 76.1997 146.344 76.7951 145.565 77.254C145.297 77.411 144.999 77.6442 144.887 77.9144C144.263 79.4238 143.487 80.6781 141.599 80.7808C141.059 80.8102 140.77 81.4344 140.674 81.9317C140.574 82.451 141.047 82.7023 141.461 82.9166C143.081 83.7559 144.67 84.7197 146.591 83.7038C146.916 83.5317 147.353 83.5823 147.731 83.5031C148.934 83.2517 150.165 83.2412 151.378 83.0804C153.499 82.7989 155.322 81.3068 157.581 81.6615C157.972 81.7234 158.377 81.3997 158.46 81.008C158.745 79.6623 159.025 78.0525 158.052 77.1197C157.088 76.1959 156.729 75.0653 156.14 74.0298C155.52 72.9408 155.388 71.5763 155.97 70.4517C156.611 69.2117 156.405 68.2457 155.667 67.2215C155.186 66.5536 154.837 65.6729 155.326 65.0344C156.527 63.4668 156.368 61.9498 155.595 60.3234C155.461 60.0419 155.432 59.688 155.434 59.368C155.451 57.4487 154.103 55.7008 154.722 53.7038C154.753 53.6042 154.665 53.4525 154.603 53.3408C153.53 51.411 152.7 49.4238 153.039 47.134C153.063 46.9672 152.941 46.7619 152.848 46.5966C151.586 44.3415 151.289 41.7121 150.072 39.4366C149.901 39.1166 149.95 38.6797 149.891 38.2487ZM137.845 45.094C138.073 44.7476 138.201 43.774 138.473 43.5363C139.279 42.8321 139.164 42.0019 138.74 41.2374C138.193 40.2548 138.014 39.3091 138.494 38.2714C138.721 37.7823 138.529 37.3997 138.168 37.057C137.236 36.1717 137.188 35.1144 137.668 34.0155C137.996 33.2646 137.939 32.497 137.967 31.7197C138.032 29.9038 138.567 29.3061 140.343 29.0163C142.314 28.6948 144.223 28.4714 146.276 28.9438C147.491 29.2238 148.919 28.8389 150.275 29.0963C151.93 29.411 153.802 30.9665 154.228 32.6019C154.277 32.7876 154.225 33.0661 154.337 33.1597C156.28 34.7778 156.023 37.1861 156.595 39.2985C156.691 39.6555 156.957 39.9823 157.197 40.2804C157.576 40.7521 157.809 41.2766 157.895 41.8653C158.059 42.9936 158.128 43.8917 159.711 44.2495C161.537 44.6623 162.974 46.211 162.55 48.0925C162.305 49.177 161.894 50.4948 161.824 51.4834C161.436 51.8351 160.957 51.4193 160.731 51.3619C160.556 51.3174 160.316 51.2638 160.192 51.3461C159.95 51.5076 159.933 51.8283 160.109 52.0298C161.768 53.931 161.479 56.4065 162.062 58.6223C162.213 59.1981 161.893 59.7717 161.848 60.3415C161.76 61.4366 161.877 62.5385 162.118 63.6208C162.559 65.6027 162.59 67.5989 162.335 69.6087C162.288 69.9876 162.344 70.3793 162.352 70.7642C162.367 71.5317 162.774 71.8336 163.488 71.6283C165.891 70.9378 168.337 71.5144 170.761 71.4012C172.211 71.3332 173.73 71.6797 175.135 72.1083C175.951 72.3574 177.41 73.1249 177.497 74.1076C177.599 75.2721 178.035 76.2147 178.796 77.0698C179.297 77.6329 179.027 78.0125 178.377 78.1823C177.659 78.3695 176.934 78.3347 176.29 77.9785C175.712 77.6585 174.439 77.4895 173.809 77.3219C171.382 76.6744 168.916 76.5234 166.428 76.5634C164.888 76.5883 164.702 76.8495 165.291 78.214C165.766 79.3129 165.66 80.3038 164.735 81.0223C164.057 81.5498 163.91 82.1053 164.056 82.8736C164.142 83.3264 164.148 83.9159 163.837 84.1846C162.304 85.5068 160.9 87.0593 158.79 87.5031C157.352 87.8057 155.848 87.6132 154.423 88.1687C153.892 88.3763 153.352 88.5468 152.827 88.8019C151.711 89.3446 150.597 89.6925 149.278 89.2404C147.961 88.7891 146.566 89.1936 145.248 89.4925C144.039 89.7672 142.913 89.5642 141.828 89.1483C140.812 88.7589 139.895 88.1566 138.723 88.217C138.196 88.2442 137.771 87.8042 137.528 87.3219C137.11 86.4932 136.355 85.9212 135.871 85.1815C134.968 83.7997 133.734 83.8012 132.465 84.1687C130.808 84.6487 128.857 85.3076 127.075 85.3521C126.832 85.3581 126.602 85.574 126.352 85.6238C125.631 85.7664 124.882 85.7438 124.44 85.0932C124.027 84.4857 124.174 82.7868 124.632 82.4261C125.308 81.8932 125.82 81.257 126.271 80.5317C126.651 79.9212 127.112 79.328 128.007 79.7846C128.143 79.8532 128.873 80.0004 128.933 79.9031C129.843 78.4027 131.493 78.9672 132.746 78.4676C134.059 77.9446 135.331 77.6593 136.718 77.8389C137.138 77.8932 137.535 77.7763 137.729 77.4057C138.212 76.4849 139.214 76.1936 139.87 75.5642C140.77 74.7 141.449 73.5929 142.436 72.7461C142.965 72.2917 142.793 71.4744 142.553 70.9008C142.181 70.0147 142.322 69.1166 142.21 68.2268C141.848 65.3348 142.179 62.3649 141.235 59.5378C141.136 59.2427 141.126 58.8872 141.18 58.5785C141.519 56.6472 141.437 54.4615 140.357 52.6608C140.112 52.2517 140.418 51.9227 140.539 51.5664C141.289 49.3461 140.755 48.3506 139.853 46.3166C139.439 45.5438 138.491 45.6442 137.845 45.094Z" fill="#EC6732"/>
<path d="M269.355 120.477C268.828 119.8 268.29 119.394 267.49 119.443C266.947 119.476 266.464 119.31 266.04 118.972C264.289 117.575 263.299 115.473 261.525 114.095C261.432 114.022 261.396 113.871 261.343 113.753C260.806 112.554 260.222 111.419 258.862 110.913C258.278 110.695 258.116 110.058 257.841 109.54C257.095 108.132 256.683 106.484 255.047 105.698C254.63 105.498 254.501 104.981 254.382 104.541C254.261 104.089 254.102 103.659 253.712 103.387C251.551 101.88 251.191 99.2494 249.999 97.1687C248.799 95.0743 247.751 92.8736 246.45 90.8177C245.727 89.6728 245.015 88.4215 244.876 87.1302C244.73 85.7694 244.07 84.8955 243.305 83.9181C242.201 82.5075 241.523 80.777 240.059 79.6253C239.887 79.4909 239.877 79.1528 239.789 78.9098C239.213 77.3128 238.632 75.7324 236.964 74.8864C236.496 74.6487 236.228 74.1762 236.022 73.6796C234.961 71.1234 233.287 69.0804 230.93 67.6034C230.32 67.2207 229.76 66.7317 229.468 66.069C229.211 65.4834 228.831 65.1226 228.25 64.9121C227.741 64.7279 227.323 64.3762 227.118 63.8917C226.835 63.226 226.28 62.9188 225.699 62.6404C223.862 61.7588 222.352 60.4456 220.905 59.0479C220.182 58.349 219.376 57.8766 218.326 57.8502C216.483 57.8041 214.906 56.8917 213.609 55.783C212.13 54.5188 210.689 54.2366 208.966 54.8789C208.104 55.2004 207.238 55.2124 206.576 54.5996C205.399 53.5121 203.711 53.8004 202.474 52.9294C202.246 52.7702 201.978 52.8947 201.743 53.026C199.95 54.0298 198.367 53.2109 196.801 52.4185C196.406 52.2185 196.108 51.7883 195.59 52.0222C193.046 53.1694 190.348 52.0366 187.762 52.5626C186.076 51.7966 184.336 52.4072 182.622 52.3438C181.133 52.2887 179.653 52.0819 178.24 52.7958C177.977 52.9287 177.581 52.9204 177.283 52.8411C175.345 52.3234 173.421 52.9128 171.49 52.8887C171.006 52.8826 170.459 52.937 170.112 53.6034C171.096 54.5815 171.916 55.7083 172.78 56.7928C174.622 59.106 176.773 61.1958 177.4 64.2532C177.465 64.5724 177.631 64.8441 177.888 65.0728C179.456 66.4705 180.678 68.0683 181.17 70.186C181.34 70.9188 181.87 71.5604 182.402 72.1468C182.748 72.5279 183.167 72.937 183.296 73.4049C183.905 75.6139 185.185 77.497 186.136 79.5377C186.3 79.8894 186.34 80.3453 186.693 80.5309C187.846 81.14 188.166 82.2456 188.568 83.3543C188.828 84.0698 189.236 84.7302 189.671 85.386C190.348 86.4072 191.397 87.2351 191.696 88.4434C192.086 90.0222 192.85 91.3053 194.043 92.3724C194.494 92.7755 194.626 93.3581 194.877 93.8819C195.376 94.9204 195.646 96.1317 196.567 96.8955C197.456 97.6328 198.077 98.4856 198.366 99.5921C198.526 100.208 198.911 100.635 199.505 100.822C200.469 101.126 200.923 101.82 201.293 102.719C201.762 103.855 202.552 104.763 203.657 105.41C205.754 106.639 207.525 108.246 208.742 110.371C209.192 111.157 209.754 111.735 210.591 111.99C212.08 112.441 213.05 113.866 214.668 114.099C214.97 114.142 215.355 114.581 215.447 114.909C215.794 116.142 216.778 116.523 217.788 117.031C218.722 117.499 219.589 117.917 220.664 118.048C221.665 118.169 222.942 118.406 223.527 119.085C224.726 120.474 226.413 120.651 227.844 120.963C231.287 121.713 234.422 123.69 238.083 123.535C238.545 123.515 238.922 123.875 239.257 124.18C239.71 124.592 240.161 124.617 240.671 124.306C241.643 123.714 242.6 123.915 243.662 124.162C244.82 124.431 246.075 124.647 247.262 124.36C248.037 124.173 248.757 124.04 249.548 124.184C252.548 124.73 255.465 124.589 258.234 123.132C258.697 122.888 259.262 122.941 259.766 123.098C260.575 123.349 261.295 123.234 261.972 122.726C262.407 122.399 262.921 122.32 263.454 122.353C263.911 122.381 264.37 122.418 264.745 122.076C265.622 121.276 266.678 121.066 267.822 121.114C268.355 121.137 268.856 121.034 269.355 120.477ZM162.216 46.666C165.127 45.7755 168.086 46.6306 170.88 45.7347C171.665 45.4834 172.416 45.3792 173.134 45.8004C174.246 46.4524 175.383 46.2887 176.535 46.0109C178.403 45.5604 180.246 44.7022 182.197 45.6985C182.3 45.7505 182.485 45.7566 182.575 45.6977C183.956 44.7905 185.36 44.7928 186.825 45.4985C187.184 45.6713 187.576 45.46 187.945 45.3113C189.363 44.7407 190.804 44.4502 192.283 45.1128C192.59 45.2509 192.899 45.2736 193.227 45.18C193.476 45.109 193.77 44.9792 193.987 45.0502C195.616 45.5838 197.358 45.457 198.984 45.9166C199.613 46.0939 200.183 46.2894 200.855 46.2532C202.199 46.18 203.601 45.9083 204.729 47.0177C204.846 47.1339 205.112 47.1913 205.279 47.1513C207 46.7422 208.403 47.8019 209.957 48.0924C211.886 48.4532 213.587 49.4313 215.497 49.7573C216.087 49.8577 216.585 50.1656 217.103 50.4366C218.163 50.9913 219.113 51.8328 220.483 51.5317C220.79 51.4638 221.31 51.7045 221.52 51.9709C222.444 53.143 223.958 53.4358 225.006 54.4079C225.188 54.5755 225.462 54.7702 225.677 54.7528C227.105 54.6336 228.018 55.3339 228.662 56.5143C230.708 57.146 231.309 59.2041 232.659 60.4977C234.47 62.2328 236.305 63.9634 238.194 65.6207C238.794 66.1475 239.377 66.6019 239.65 67.3702C239.714 67.549 239.797 67.7596 239.939 67.8675C242.074 69.4917 243.191 71.8894 244.352 74.1468C245.346 76.0781 247.04 77.4562 247.976 79.2864C249.013 81.3128 250.688 83.0034 251.077 85.4283C251.283 86.709 252.151 87.8894 252.313 89.269C252.354 89.6124 252.634 90.0645 252.932 90.2185C254.191 90.8675 254.476 92.0698 254.819 93.2547C255.126 94.3196 255.443 95.3475 256.468 96.0155C256.967 96.3407 257.104 96.9634 257.173 97.5664C257.436 99.866 258.797 101.564 260.338 103.126C260.996 103.794 261.613 104.418 261.658 105.412C261.68 105.895 261.876 106.319 262.278 106.575C264.433 107.941 265.47 110.238 266.949 112.165C267.145 112.42 267.266 112.748 267.571 112.883C269.379 113.685 270.588 115.253 272.126 116.373C273.115 117.093 274.352 117.601 275.492 118.164C277.162 118.99 277.592 120.544 278.142 122.04C278.457 122.898 278.039 123.764 277.09 124.045C276.28 124.284 275.727 124.705 275.212 125.316C274.616 126.023 273.762 126.115 272.897 126.111C272.006 126.108 271.252 126.315 270.778 127.193C270.454 127.793 269.847 128.052 269.181 128.198C267.294 128.609 265.406 129.019 263.533 129.486C261.53 129.985 259.571 130.677 257.443 130.409C257.031 130.357 256.582 130.658 256.142 130.763C254.153 131.236 252.09 130.587 250.105 131.154C248.415 130.221 246.69 130.541 244.907 130.876C243.644 131.112 242.408 130.354 241.08 130.465C240.305 130.529 239.539 130.444 238.816 130.832C237.906 131.32 237.015 131.163 236.282 130.509C235.686 129.977 235.004 129.901 234.296 129.877C231.322 129.775 228.613 128.824 226.077 127.333C225.38 126.924 224.594 126.803 223.853 126.661C221.951 126.293 220.317 125.146 218.378 124.908C217.615 124.814 217.146 124.228 216.841 123.544C216.653 123.121 216.454 122.566 215.963 122.608C214.47 122.737 213.496 121.514 212.164 121.265C211.977 121.23 211.755 121.163 211.634 121.032C210.551 119.86 209.015 119.101 208.066 117.94C206.729 116.305 204.99 115.431 203.321 114.392C202.514 113.889 201.775 113.453 201.557 112.471C201.468 112.074 201.317 111.708 200.917 111.556C198.545 110.657 197.361 108.685 196.348 106.551C196.211 106.264 196.092 105.87 195.852 105.748C194.283 104.956 193.634 103.486 192.853 102.049C192.348 101.117 191.967 100.003 190.849 99.4985C190.637 99.4034 190.456 99.1385 190.357 98.9098C189.27 96.4305 187.497 94.3287 186.359 91.9113C185.351 89.7702 183.72 88.0404 182.762 85.977C181.85 84.0117 180.005 82.4728 180.04 79.9921C180.053 79.0811 179.391 78.0547 178.632 77.2924C178.268 76.9271 177.77 76.54 177.674 76.0902C177.277 74.2472 176.105 72.7717 175.444 71.0638C175.374 70.8834 175.342 70.6638 175.218 70.5347C174.056 69.3362 173.524 67.8215 172.988 66.2909C172.541 65.017 172.09 63.7151 170.607 63.189C170.345 63.0955 170.062 62.74 170 62.4592C169.669 60.9438 168.391 60.0471 167.702 58.8147C166.759 57.1271 165.314 55.9921 163.838 55.1143C162.133 54.1007 161.819 52.7143 161.69 51.0939C161.564 49.5309 162.038 48.023 162.216 46.666Z" fill="#3CA178"/>
<path d="M46.8456 107.333C48.4471 108.341 49.7581 108.942 51.3 109.049C52.3988 109.125 53.5573 108.904 54.5641 109.107C57.3837 109.677 60.1936 110.255 63.0592 110.537C63.1211 110.543 63.1815 110.579 63.2403 110.606C66.3098 112.014 69.5845 111.086 72.746 111.438C72.8675 111.452 73.0026 111.397 73.1234 111.354C75.3173 110.563 77.6683 110.541 79.9143 109.918C81.8886 109.369 83.8569 108.979 85.6962 107.968C86.8335 107.343 87.8124 106.437 89.0396 106.006C91.58 105.114 91.9543 104.923 93.9452 103.102C94.1339 102.929 94.3611 102.788 94.5898 102.67C96.0388 101.926 96.9422 100.239 98.8237 100.227C98.9739 100.225 99.1286 100.001 99.2698 99.8675C101.274 97.9739 103.962 96.9271 105.694 94.6886C105.84 94.5007 106.158 94.4569 106.366 94.3044C107.3 93.6214 108.295 93.0033 108.874 91.9377C109.517 90.7565 110.425 89.8833 111.725 89.4214C112.657 89.0894 113.2 88.3829 113.297 87.3845C113.355 86.7882 113.394 86.026 113.92 85.8161C115.784 85.072 116.607 83.4969 117.578 81.9226C118.023 81.2018 118.764 80.5822 119.3 79.8471C120.391 78.3512 121.055 76.5045 122.856 75.5837C123.322 75.346 123.256 74.8124 123.196 74.3497C123.086 73.5173 123.348 72.8139 123.94 72.2267C125.192 70.9837 125.717 69.3241 126.119 67.7256C126.431 66.4833 126.907 65.4056 127.62 64.4094C128.348 63.3905 128.76 62.2441 129.064 61.0697C129.568 59.1286 129.911 57.1399 131.892 56.0267C132.292 55.8018 132.473 55.3475 132.645 54.9173C133.169 53.6124 132.959 53.4433 131.538 53.386C130.184 53.3316 129.277 54.3445 128.083 54.5512C126.178 54.8818 124.546 56.2562 122.478 55.9814C122.228 55.9482 121.94 56.3112 121.649 56.4441C121.238 56.632 120.816 56.8894 120.384 56.9211C118.249 57.0773 116.347 58.2297 114.178 58.2954C113.372 58.3203 112.575 58.6939 111.82 59.1309C110.719 59.7686 109.374 59.8916 108.308 60.6675C107.984 60.9037 107.55 60.8471 107.178 60.6894C105.661 60.0463 104.453 60.7339 103.569 61.8003C102.668 62.8878 101.652 63.4878 100.279 63.6109C99.9037 63.6441 99.4902 63.7565 99.183 63.9641C97.0237 65.4222 94.2434 65.6939 92.3068 67.5822C92.0969 67.7867 91.7053 67.9286 91.4147 67.9037C90.2796 67.8063 89.4554 68.4011 88.5679 68.9641C87.0607 69.9195 85.2886 70.518 84.4147 72.272C84.3369 72.4282 84.1271 72.5286 83.9634 72.632C81.9619 73.8999 80.0819 75.4697 77.9211 76.3467C75.5226 77.3195 74.4743 79.8909 72.0486 80.6946C71.8275 80.7678 71.7037 81.2229 71.592 81.5226C71.1785 82.6312 70.3913 83.2078 69.2139 83.155C68.5173 83.1233 68.0766 83.435 67.8517 84.026C67.466 85.0411 66.9068 85.8584 65.8464 86.2697C65.4517 86.4229 65.3354 86.8252 65.2336 87.2124C65.0811 87.7897 64.8486 88.3611 64.3249 88.6675C63.6313 89.0728 63.0781 89.5603 62.7151 90.2901C62.543 90.6365 62.2124 90.909 61.8237 91.0101C60.0358 91.4743 59.4056 93.0184 58.7822 94.4509C58.3437 95.4592 57.743 96.1331 56.7181 96.2773C55.8894 96.3935 55.5649 96.9165 55.1075 97.4848C53.4645 99.5286 52.5158 102.088 50.5128 103.839C49.297 104.901 48.7588 106.597 46.8456 107.333ZM84.1656 115.386C83.4886 115.053 82.9105 115.263 82.3505 115.676C81.9143 115.998 81.3837 116.037 80.8637 116.067C80.4668 116.089 80.0185 116.107 79.7656 116.397C78.1453 118.252 75.9354 117.678 73.9203 117.804C73.2071 117.849 72.5181 117.778 71.8486 118.119C71.2479 118.426 70.5739 118.427 69.9385 118.28C68.9151 118.041 67.9347 117.933 66.8886 118.257C66.2758 118.447 65.5815 118.308 65.1241 117.719C64.74 117.224 64.2049 116.944 63.623 116.901C62.3249 116.803 61.0464 116.711 59.8562 116.092C59.6049 115.962 59.2237 116.043 58.9098 116.083C58.5913 116.123 58.2411 116.372 57.9762 116.292C56.392 115.816 54.6524 115.843 53.1769 115.241C51.8736 114.71 50.6207 114.467 49.2924 114.452C47.5324 114.434 45.8139 114.43 44.2207 113.467C43.5143 113.04 42.6622 112.715 41.8471 112.635C40.2585 112.48 39.1641 111.388 37.869 110.714C36.4237 109.962 36.38 107.879 37.7611 106.966C38.7739 106.297 39.5936 105.559 40.1241 104.474C40.429 103.849 41.029 103.577 41.6486 103.338C42.6577 102.948 43.5083 102.243 43.8939 101.295C44.4554 99.9143 45.4751 99.1218 46.6773 98.4403C47.9151 97.7377 48.9264 97.0433 49.2826 95.3754C49.5362 94.1875 50.4796 93.0222 51.7422 92.2456C53.0456 91.4426 54.0751 90.2622 54.8811 88.9014C55.9453 87.1037 57.2109 85.4599 59.1664 84.5233C59.5294 84.3497 59.9113 84.2109 59.9747 83.7701C60.2592 81.7746 61.9551 80.9845 63.3007 79.9384C65.586 78.1611 67.6743 76.1339 70.1219 74.5588C70.423 74.3656 70.629 73.9603 70.78 73.6109C71.2071 72.6222 71.8917 72.0343 72.9981 72.0033C73.3203 71.9943 73.7415 72.0403 73.8743 71.7173C74.4162 70.4011 75.5641 70.0154 76.7785 69.6803C77.0094 69.6162 77.2871 69.4562 77.3966 69.2592C78.3181 67.6063 79.9966 67.2486 81.5981 66.7754C82.3671 66.5482 83.2668 66.2629 83.5611 65.6177C84.1603 64.3037 85.4766 63.9195 86.3679 63.0161C86.6524 62.7286 87.0403 62.4418 87.3913 62.5203C89.3332 62.9543 90.5045 61.1399 92.2154 60.9226C92.4403 60.8939 92.7181 60.6931 92.8336 60.4924C93.4524 59.4169 94.5136 59.3467 95.546 58.9497C96.8826 58.4365 98.2788 57.8773 99.5234 57.0992C100.082 56.749 100.655 56.4999 101.267 56.2712C102.923 55.6501 104.87 55.7988 106.24 54.3867C106.439 54.1814 106.844 54.0841 107.151 54.0894C109.946 54.1414 112.4 52.8539 115.003 52.1497C115.576 51.9943 116.098 51.7648 116.601 51.4577C117.046 51.1852 117.588 50.8026 118.049 51.0577C119.206 51.6999 120 51.026 120.87 50.4886C121.366 50.1814 121.926 49.7067 122.472 49.8795C124.656 50.5678 126.291 48.9973 128.203 48.6011C130.801 48.0629 133.207 46.9037 135.743 46.1565C136.18 46.0275 136.544 45.8795 136.914 45.5573C137.883 44.7097 139.046 44.8486 139.684 45.9445C140.982 48.1739 141.575 50.4637 140.046 52.8992C139.153 54.3203 138.445 55.8561 137.611 57.3158C137.363 57.7497 137.393 58.1814 137.369 58.629C137.324 59.4909 137.085 60.2614 136.538 60.9694C135.757 61.9822 135.594 63.3762 134.575 64.2592C134.805 66.2992 133.901 67.8562 132.479 69.195C132.435 69.2358 132.39 69.3173 132.4 69.3686C132.92 71.9414 130.62 73.2056 129.649 75.0607C128.612 77.0426 127.922 79.2501 126.329 80.9445C125.89 81.4109 125.533 81.9588 125.018 82.3648C124.402 82.8509 124.079 83.4184 124.495 84.2154C124.733 84.6705 124.686 85.0599 124.17 85.3543C122.644 86.2275 121.712 87.7467 120.421 88.8833C119.656 89.5565 119.218 90.4969 118.72 91.4161C117.904 92.9218 116.71 94.2652 115.495 95.4984C114.369 96.6403 113.037 97.6328 111.9 98.7263C110.735 99.8463 109.44 100.812 108.169 101.674C106.309 102.933 104.701 104.48 102.868 105.747C102.657 105.894 102.42 106.11 102.194 106.111C101.05 106.12 100.289 106.67 99.6985 107.61C99.4562 107.996 98.9762 108.142 98.5136 108.22C98.1203 108.286 97.7264 108.405 97.5354 108.781C97.0071 109.819 96.0834 110.229 95.0162 110.387C94.3611 110.483 94.0026 110.874 93.6909 111.406C93.2668 112.129 92.6034 112.509 91.7596 112.531C90.6313 112.56 89.6222 113.058 88.5649 113.356C87.7686 113.58 86.9913 113.86 86.4328 114.614C85.9015 115.331 85.0728 115.573 84.1656 115.386Z" fill="#3CA178"/>
<path d="M154.683 147.233C154.892 149.211 154.42 149.887 152.705 150.402C152.264 150.536 151.837 150.719 151.4 150.866C150.552 151.152 150.151 151.755 150.367 152.604C150.696 153.899 149.928 155.116 150.199 156.406C150.293 156.85 150.275 157.324 150.406 157.775C150.687 158.744 150.982 158.978 151.864 158.596C152.488 158.326 153.072 158.17 153.705 158.376C154.179 158.53 154.45 158.28 154.791 158.039C155.809 157.323 157.588 157.311 158.535 157.976C158.931 158.255 159.185 158.634 159.265 159.12C159.456 160.309 157.748 162.653 156.555 162.918C154.807 163.306 153.037 163.4 151.271 163.58C149.375 163.773 147.621 163.711 145.8 163.319C145.018 163.151 144.181 163.152 143.376 163.197C142.399 163.251 141.532 162.949 140.717 162.514C139.911 162.083 139.247 161.444 138.21 161.438C137.637 161.435 137.163 160.901 137.087 160.26C136.986 159.434 136.674 158.73 136.259 158.006C135.618 156.887 136.321 155.74 137.637 155.715C139.037 155.687 140.42 155.652 141.021 157.444C141.345 158.409 143.652 158.813 144.605 158.302C144.992 158.093 145.08 157.755 145.001 157.429C144.643 155.941 144.965 154.497 145.199 153.042C145.335 152.198 145.096 151.696 144.156 151.386C142.536 150.852 141.265 149.681 140.029 148.546C138.916 147.524 139.043 146.425 140.258 145.477C140.713 145.121 141.184 144.814 141.519 144.303C142.36 143.017 143.568 142.504 145.093 142.826C145.797 142.974 146.52 142.884 147.165 142.7C148.895 142.207 150.334 142.579 151.624 143.792C151.91 144.062 152.307 144.223 152.67 144.397C153.975 145.023 154.898 145.89 154.683 147.233Z" fill="#EC6732"/>
<path d="M166.902 138.951C167.542 141.161 165.955 142.69 164.756 144.258C163.604 145.764 160.204 145.757 158.952 144.286C157.958 143.119 157.062 141.81 156.736 140.234C156.202 137.641 157.859 134.886 160.392 134.163C161.172 133.94 161.95 133.711 162.735 133.507C163.561 133.292 164.272 133.514 164.661 134.283C164.958 134.871 165.33 135.301 165.873 135.69C166.937 136.45 167.072 137.61 166.902 138.951Z" fill="#EC6732"/>
<path d="M131.812 133.211C133.276 133.402 134.783 133.578 135.442 135.286C135.595 135.68 135.9 135.946 136.162 136.252C136.434 136.568 136.721 137.003 136.568 137.351C136.069 138.487 136.509 139.601 136.491 140.722C136.458 142.734 135.679 143.595 133.651 144C133.368 144.057 133.032 144.045 132.817 144.2C131.387 145.229 130.159 144.466 128.965 143.76C127.836 143.094 127.353 142.003 127.248 140.718C127.202 140.142 127.098 139.571 127.015 138.998C126.938 138.463 126.959 137.932 127.343 137.525C127.843 136.995 128.01 136.315 128.279 135.68C128.933 134.141 130.144 133.422 131.812 133.211Z" fill="#EC6732"/>
<path d="M64.2395 47.054C63.2697 46.3966 62.7044 45.7295 62.0486 45.6246C60.398 45.3604 59.6041 43.9695 58.4433 43.1091C57.1225 42.131 55.7965 42.0163 55.0335 43.4698C54.1746 45.1046 53.075 46.577 52.0856 48.1144C51.4682 49.0736 51.6901 49.5332 52.3603 50.1793C53.715 51.4865 55.4282 52.3408 56.7361 53.7091C57.1618 54.1551 57.5905 54.0457 57.8018 53.4208C57.9112 53.0978 58.0969 52.7748 58.1037 52.4487C58.1384 50.8714 59.2207 50.0215 60.3414 49.2487C61.4463 48.4865 62.5475 47.7053 64.2395 47.054ZM56.9059 34.4465C58.1633 36.3023 58.4395 38.7219 60.7067 40.054C62.1973 40.9295 63.3369 42.3846 65.029 43.0827C65.6267 43.3287 66.1897 43.5219 66.7965 43.4464C68.0765 43.2857 69.0048 43.9642 69.9867 44.6042C70.9324 45.2208 71.1052 46.1551 71.0667 47.1212C71.029 48.0744 70.2841 48.5159 69.4524 48.7725C68.401 49.097 67.3535 49.4261 66.395 49.9823C64.3874 51.1483 62.6154 52.5415 61.4131 54.6027C59.8886 57.2178 60.1512 59.9951 60.6252 62.7566C60.798 63.7619 60.7565 64.6676 60.438 65.568C60.069 66.614 59.1437 67.1672 58.2093 67.0434C57.2841 66.9204 56.6939 66.1951 56.5995 64.9725C56.321 61.337 54.9995 58.1181 52.8659 55.1808C51.549 53.3657 49.4433 52.7649 47.6976 51.6117C47.4101 51.4215 47.0169 51.5717 46.712 51.7378C45.4018 52.4517 44.2916 51.7106 43.2146 51.1785C42.2833 50.7197 42.1799 49.7257 42.8644 48.9219C43.3127 48.3951 43.8554 47.9393 44.5535 47.7959C45.5807 47.5846 46.4418 47.0336 47.3633 46.5846C51.0531 44.7868 52.672 41.6706 53.0697 37.7793C53.2146 36.3634 53.1769 34.9287 53.2539 33.5038C53.2803 33.0298 53.3271 32.5295 53.5022 32.0963C53.9278 31.0389 54.7874 30.8827 55.5897 31.7061C56.3218 32.4563 56.7308 33.3906 56.9059 34.4465Z" fill="#EC6732"/>
</g>
</svg>
