<svg width="64" height="64" viewBox="0 0 64 64" fill="none" xmlns="http://www.w3.org/2000/svg">
<path fill-rule="evenodd" clip-rule="evenodd" d="M31.1741 55.9483C44.8565 55.9483 55.9483 44.8565 55.9483 31.1741C55.9483 17.4917 44.8565 6.3999 31.1741 6.3999C17.4917 6.3999 6.3999 17.4917 6.3999 31.1741C6.3999 44.8565 17.4917 55.9483 31.1741 55.9483ZM44.5108 23.7289C44.9597 23.2044 44.8985 22.4153 44.374 21.9664C43.8496 21.5175 43.0605 21.5787 42.6116 22.1032L27.6284 39.6076L17.6472 28.6329C17.1827 28.1222 16.3922 28.0847 15.8815 28.5492C15.3707 29.0136 15.3332 29.8042 15.7977 30.3149L25.9695 41.4993C26.8804 42.5008 28.463 42.477 29.3434 41.4485L44.5108 23.7289Z" fill="#EC6732"/>
</svg>
