<svg width="24" height="24" viewBox="0 0 24 24" fill="none" xmlns="http://www.w3.org/2000/svg">
<path fill-rule="evenodd" clip-rule="evenodd" d="M11.6902 20.9805C16.8211 20.9805 20.9805 16.8211 20.9805 11.6902C20.9805 6.55932 16.8211 2.3999 11.6902 2.3999C6.55932 2.3999 2.3999 6.55932 2.3999 11.6902C2.3999 16.8211 6.55932 20.9805 11.6902 20.9805ZM17.285 9.4063C17.7339 8.88183 17.6727 8.09275 17.1482 7.64383C16.6238 7.19491 15.8347 7.25614 15.3858 7.78061L10.3428 13.6721L7.19562 10.2116C6.73113 9.7009 5.94057 9.66341 5.42984 10.1279C4.91911 10.5924 4.88163 11.383 5.34612 11.8937L8.68395 15.5638C9.59482 16.5653 11.1775 16.5415 12.0578 15.5131L17.285 9.4063Z" fill="#DFE2E7"/>
</svg>
