<svg width="17" height="16" viewBox="0 0 17 16" fill="none" xmlns="http://www.w3.org/2000/svg">
<mask id="mask0_424_432" style="mask-type:alpha" maskUnits="userSpaceOnUse" x="0" y="0" width="17" height="16">
<rect x="0.5" width="16" height="16" fill="#D9D9D9"/>
</mask>
<g mask="url(#mask0_424_432)">
<path d="M8.50033 10.6667L5.16699 7.33341L6.10033 6.36675L7.83366 8.10008V2.66675H9.16699V8.10008L10.9003 6.36675L11.8337 7.33341L8.50033 10.6667ZM4.50033 13.3334C4.13366 13.3334 3.81977 13.2029 3.55866 12.9417C3.29755 12.6806 3.16699 12.3667 3.16699 12.0001V10.0001H4.50033V12.0001H12.5003V10.0001H13.8337V12.0001C13.8337 12.3667 13.7031 12.6806 13.442 12.9417C13.1809 13.2029 12.867 13.3334 12.5003 13.3334H4.50033Z" fill="#EC6732"/>
</g>
</svg>
