<svg width="25" height="25" viewBox="0 0 25 25" fill="none" xmlns="http://www.w3.org/2000/svg">
<mask id="mask0_626_663" style="mask-type:alpha" maskUnits="userSpaceOnUse" x="0" y="0" width="25" height="25">
<rect x="0.674561" y="0.0488281" width="24" height="24" fill="#D9D9D9"/>
</mask>
<g mask="url(#mask0_626_663)">
<path d="M12.6746 17.0488C12.9579 17.0488 13.1954 16.953 13.3871 16.7613C13.5787 16.5697 13.6746 16.3322 13.6746 16.0488C13.6746 15.7655 13.5787 15.528 13.3871 15.3363C13.1954 15.1447 12.9579 15.0488 12.6746 15.0488C12.3912 15.0488 12.1537 15.1447 11.9621 15.3363C11.7704 15.528 11.6746 15.7655 11.6746 16.0488C11.6746 16.3322 11.7704 16.5697 11.9621 16.7613C12.1537 16.953 12.3912 17.0488 12.6746 17.0488ZM11.6746 13.0488H13.6746V7.04883H11.6746V13.0488ZM12.6746 22.0488C11.2912 22.0488 9.99123 21.7863 8.77456 21.2613C7.55789 20.7363 6.49956 20.0238 5.59956 19.1238C4.69956 18.2238 3.98706 17.1655 3.46206 15.9488C2.93706 14.7322 2.67456 13.4322 2.67456 12.0488C2.67456 10.6655 2.93706 9.36549 3.46206 8.14883C3.98706 6.93216 4.69956 5.87383 5.59956 4.97383C6.49956 4.07383 7.55789 3.36133 8.77456 2.83633C9.99123 2.31133 11.2912 2.04883 12.6746 2.04883C14.0579 2.04883 15.3579 2.31133 16.5746 2.83633C17.7912 3.36133 18.8496 4.07383 19.7496 4.97383C20.6496 5.87383 21.3621 6.93216 21.8871 8.14883C22.4121 9.36549 22.6746 10.6655 22.6746 12.0488C22.6746 13.4322 22.4121 14.7322 21.8871 15.9488C21.3621 17.1655 20.6496 18.2238 19.7496 19.1238C18.8496 20.0238 17.7912 20.7363 16.5746 21.2613C15.3579 21.7863 14.0579 22.0488 12.6746 22.0488ZM12.6746 20.0488C14.9079 20.0488 16.7996 19.2738 18.3496 17.7238C19.8996 16.1738 20.6746 14.2822 20.6746 12.0488C20.6746 9.81549 19.8996 7.92383 18.3496 6.37383C16.7996 4.82383 14.9079 4.04883 12.6746 4.04883C10.4412 4.04883 8.54956 4.82383 6.99956 6.37383C5.44956 7.92383 4.67456 9.81549 4.67456 12.0488C4.67456 14.2822 5.44956 16.1738 6.99956 17.7238C8.54956 19.2738 10.4412 20.0488 12.6746 20.0488Z" fill="#1C1B1F"/>
</g>
</svg>
