<svg width="25" height="25" viewBox="0 0 25 25" fill="none" xmlns="http://www.w3.org/2000/svg">
<mask id="mask0_673_243" style="mask-type:alpha" maskUnits="userSpaceOnUse" x="0" y="0" width="25" height="25">
<rect x="0.171875" y="0.529663" width="24" height="24" fill="#D9D9D9"/>
</mask>
<g mask="url(#mask0_673_243)">
<path d="M5.17188 21.5297C4.62187 21.5297 4.15104 21.3338 3.75938 20.9422C3.36771 20.5505 3.17188 20.0797 3.17188 19.5297V5.52966C3.17188 4.97966 3.36771 4.50883 3.75938 4.11716C4.15104 3.7255 4.62187 3.52966 5.17188 3.52966H12.1719V5.52966H5.17188V19.5297H12.1719V21.5297H5.17188ZM16.1719 17.5297L14.7969 16.0797L17.3469 13.5297H9.17188V11.5297H17.3469L14.7969 8.97966L16.1719 7.52966L21.1719 12.5297L16.1719 17.5297Z" fill="#1C1B1F"/>
</g>
</svg>
