<svg width="300" height="300" viewBox="0 0 300 300" fill="none" xmlns="http://www.w3.org/2000/svg">
<mask id="mask0_46_760" style="mask-type:luminance" maskUnits="userSpaceOnUse" x="0" y="0" width="300" height="300">
<path d="M0 -3.05176e-05H300V300H0V-3.05176e-05Z" fill="white"/>
</mask>
<g mask="url(#mask0_46_760)">
<path d="M238.214 197.629C238.201 196.5 238.312 195.604 238.458 194.7C238.948 191.659 239.678 188.673 240.346 185.671C240.558 184.721 240.185 183.749 240.045 182.791C239.855 181.496 239.626 180.202 240.558 179.059C240.945 178.582 240.69 178.086 240.599 177.576C240.382 176.352 240.376 175.167 240.914 173.959C241.358 172.96 241.518 171.841 240.865 170.782C240.258 169.795 240.279 168.635 240.261 167.563C240.21 164.543 239.983 161.512 240.475 158.5C240.558 157.994 240.508 157.468 240.278 156.973C238.992 154.219 238.704 151.217 238.448 148.271C238.324 146.856 238.085 145.764 237.262 144.578C236.533 143.526 236.56 141.204 235.512 140.212C235.321 140.032 235.241 139.554 235.33 139.287C235.782 137.951 235.03 136.876 234.277 136.128C233.198 135.058 233.059 133.567 232.157 132.465C231.911 132.164 231.828 131.72 232.062 131.364C232.333 130.949 232.785 131.102 233.13 131.23C234.671 131.806 236.195 131.393 237.68 131.075C238.356 130.93 238.798 131.253 239.342 131.368C239.598 131.422 239.852 131.609 239.804 131.903C239.522 133.607 240.408 134.811 241.483 135.947C241.614 136.087 241.782 136.266 241.793 136.435C241.946 138.723 243.677 141.374 243.582 143.724C243.561 144.212 243.817 144.598 244.022 144.996C244.567 146.056 245.032 147.112 244.582 148.344C244.502 148.563 244.486 148.927 244.613 149.08C245.911 150.629 245.825 152.681 246.103 154.425C246.38 156.167 247.447 157.983 246.609 159.876C246.515 160.088 246.608 160.389 246.637 160.647C247.065 164.487 246.813 168.333 246.732 172.177C246.723 172.628 246.601 173.086 246.819 173.519C248.019 175.896 247.648 178.219 246.77 180.616C246.365 181.723 246.226 183.109 246.405 184.179C246.767 186.346 246.293 188.271 245.644 190.228C245.409 190.934 245.267 191.595 245.585 192.3C246.1 193.445 245.841 194.499 245.029 195.364C244.375 196.06 244.275 196.796 244.368 197.687C244.477 198.721 244.291 199.692 243.874 200.706C243.371 201.924 243.506 203.332 242.889 204.601C242.12 206.18 242.281 208.194 240.651 209.382C240.567 210.515 239.739 211.391 239.521 212.42C239.312 213.405 238.918 214.208 238.462 215.074C237.299 217.283 235.898 219.382 235.142 221.796C234.961 222.376 234.581 222.838 234.021 223.086C232.673 223.685 232.13 224.75 232.132 226.171C232.133 226.78 231.907 227.343 231.478 227.757C230.375 228.82 229.699 230.239 228.228 231.037C227.363 231.507 226.475 232.366 226.264 233.58C226.121 234.404 225.504 234.912 224.796 235.304C224.291 235.583 223.709 235.764 223.44 236.354C222.123 239.232 219.47 240.857 217.282 242.919C216.906 243.274 216.367 243.596 216.229 244.036C215.767 245.504 214.571 246.311 213.589 247.331C212.884 248.065 212.209 248.97 211.49 249.536C210.125 250.611 209.118 252.208 207.713 252.949C205.801 253.957 204.548 255.564 202.917 256.726C201.406 257.803 200.139 259.566 197.827 259.512C196.739 259.487 195.491 260.098 194.737 261.01C193.804 262.137 192.599 262.455 191.305 262.568C190.268 262.659 189.396 262.845 188.881 263.869C188.676 264.275 188.229 264.756 187.837 264.652C185.941 264.146 184.984 266.505 183.288 266.141C182.016 265.869 181.04 265.982 180.099 266.872C179.724 267.228 179.161 267.391 178.638 267.319C176.423 267.017 174.496 268.142 172.419 268.511C169.395 269.046 166.435 269.919 163.291 269.792C161.998 269.739 160.61 269.754 159.309 270.314C158.626 270.608 157.821 270.812 157.028 270.683C156.611 270.616 156.241 270.668 155.932 270.936C155.185 271.582 154.254 271.426 153.406 271.634C151.753 272.039 150.228 272.586 148.698 271.372C148.581 271.279 148.203 271.438 147.988 271.557C145.506 272.916 142.904 272.54 140.272 272.192C138.232 271.923 136.155 271.807 134.127 272.282C133.204 272.499 132.382 272.562 131.475 272.216C130.123 271.701 128.745 271.733 127.278 271.914C125.361 272.15 123.432 271.658 121.64 270.893C120.833 270.549 120.124 270.238 119.245 270.684C118.586 271.019 117.852 270.944 117.157 270.682C114.671 269.745 112.08 269.245 109.462 268.872C107.675 268.619 106.04 267.609 104.161 267.819C104.101 267.825 104.023 267.806 103.975 267.77C102.856 266.939 101.41 266.89 100.253 266.33C97.8942 265.19 95.1598 265.049 93.0074 263.343C92.0368 262.573 90.6217 262.455 89.4451 261.909C88.2149 261.339 87.1628 260.145 85.5598 260.579C85.3719 260.629 85.0625 260.413 84.873 260.248C83.3825 258.947 81.5055 258.439 79.7394 257.697C79.0255 257.398 78.1923 257.155 77.7402 256.527C76.664 255.032 75.0134 254.656 73.4489 254.081C73.147 253.969 72.7659 253.946 72.553 253.742C70.7855 252.063 68.5832 251.132 66.4391 250.091C65.8942 249.827 65.5221 249.33 65.421 248.727C65.2813 247.889 64.8625 247.441 63.99 247.475C63.2194 247.505 62.7176 246.975 62.0934 246.653C59.9221 245.534 58.3794 243.677 56.5213 242.198C56.3689 242.076 56.1515 242 56.0587 241.846C54.4602 239.181 51.1538 238.055 49.9402 235.048C48.6338 234.179 47.701 232.942 46.7183 231.757C45.8104 230.66 44.8217 229.635 44.1334 228.358C43.7108 227.573 43.2096 226.775 42.1945 226.57C42.0194 226.534 41.7825 226.394 41.7259 226.244C41.1085 224.602 39.673 223.555 38.7719 222.143C37.9825 220.906 37.4881 219.48 36.4881 218.358C36.4451 218.31 36.3772 218.255 36.3764 218.201C36.3274 216.262 34.8406 214.684 34.9689 212.717C35.0512 211.45 34.8142 210.487 33.5825 209.786C32.3628 209.09 32.3138 207.71 32.3206 206.484C32.3251 205.659 32.2942 204.964 31.6496 204.368C31.427 204.163 31.2406 203.807 31.224 203.509C31.107 201.422 30.0285 199.574 29.7915 197.507C29.6685 196.439 29.187 195.41 28.8489 194.369C28.5727 193.518 28.5545 192.685 29.1161 191.956C29.6104 191.315 29.6519 190.752 29.3032 189.993C28.8745 189.059 28.6904 188.061 28.8489 186.965C29.0134 185.827 28.6036 184.648 28.3085 183.578C27.8881 182.05 28.1176 180.493 27.7153 178.968C27.4911 178.119 27.9379 177.064 28.1795 176.127C28.5085 174.856 28.6444 173.581 28.4527 172.286C28.3508 171.594 28.5349 170.986 28.8791 170.431C29.4557 169.499 29.7711 168.564 29.2896 167.487C29.1259 167.121 29.0995 166.672 29.3183 166.352C30.6021 164.468 30.7085 162.172 31.0715 160.1C31.4934 157.69 32.5176 155.57 33.2096 153.304C33.3734 152.768 33.3674 152.31 33.2406 151.794C32.9794 150.73 33.2972 149.836 34.2383 149.273C35.0926 148.763 35.35 148.155 35.0987 147.166C34.8527 146.197 35.3402 145.209 35.6285 144.342C36.2194 142.569 36.6232 140.768 38.1221 139.238C39.3591 137.976 39.8549 135.905 40.901 134.311C40.4896 132.269 41.1719 130.669 42.784 129.379C43.024 129.186 42.9991 128.65 43.0738 128.269C43.1787 127.731 43.4157 127.253 43.8919 126.995C45.5825 126.078 46.3281 124.189 46.9402 122.414C47.6451 120.372 49.196 118.598 51.3628 117.844C52.4194 117.477 53.6851 117.788 54.7923 118.179C55.2006 118.324 55.4866 118.774 55.547 119.254C55.6693 120.229 54.7025 122.163 53.7266 122.419C52.6761 122.695 52.2768 123.832 52.0896 124.631C51.7508 126.072 51.1296 127.33 49.993 128.277C49.3017 128.854 49.0964 129.696 48.6791 130.415C48.2549 131.146 47.9651 131.943 47.1651 132.38C46.796 132.582 46.6821 132.938 46.5893 133.339C46.23 134.902 46.0323 136.468 45.0738 137.902C44.5666 138.662 44.2693 139.81 44.0738 140.727C43.6436 142.74 42.0768 144.051 41.4496 145.882C41.347 146.182 41.0013 146.455 41.0111 146.731C41.1108 149.49 39.584 151.929 39.4866 154.636C39.4549 155.522 39.1123 156.247 38.7025 157.001C37.9651 158.356 37.107 159.695 37.5296 161.385C37.6398 161.828 37.4972 162.308 37.2209 162.685C36.3991 163.807 36.3696 165.107 36.3304 166.411C36.2655 168.543 35.7689 170.579 35.2979 172.658C34.8919 174.453 33.7651 176.303 34.5983 178.324C34.7538 178.702 34.6345 179.23 34.5395 179.667C34.3093 180.724 34.4089 181.749 34.833 182.716C35.4081 184.028 35.1893 185.532 35.8957 186.813C36.0308 187.058 35.996 187.488 35.8776 187.764C35.5409 188.546 35.581 189.242 36.0277 189.976C36.3425 190.493 36.4391 191.153 36.0972 191.658C35.4164 192.662 35.8089 193.573 36.3221 194.377C37.0391 195.502 37.2338 196.633 36.9266 197.903C36.8059 198.404 36.636 199.01 37.1077 199.373C38.6164 200.539 38.3198 202.306 38.6006 203.844C38.7674 204.761 38.7606 205.645 39.6609 206.192C39.7666 206.256 39.8866 206.373 39.91 206.484C40.3085 208.427 41.4096 210.161 41.6383 212.136C41.7002 212.666 41.6693 213.097 42.0851 213.512C43.421 214.844 44.2059 216.428 44.1689 218.367C44.1576 218.971 44.4685 219.501 44.8029 219.974C45.5402 221.017 46.2753 222.128 47.0911 223.033C48.1915 224.255 49.3115 225.35 49.7651 226.972C49.7983 227.09 49.8851 227.21 49.9794 227.293C51.7636 228.881 53.3636 230.638 54.9145 232.456C56.1545 233.909 57.7779 234.983 59.1274 236.361C60.0557 237.31 61.3591 237.887 61.8149 239.284C63.2904 239.507 63.9342 241.03 65.3311 241.469C66.6783 241.891 67.9681 242.733 68.8059 243.816C69.9734 245.324 71.4723 246.324 73.073 247.108C74.3757 247.747 75.6157 248.653 77.1825 248.742C78.3251 248.807 78.4028 250.266 79.2549 250.613C80.0542 250.939 81.0496 250.697 81.7319 251.496C83.427 253.482 85.8126 254.135 88.2126 254.662C89.1372 254.866 89.99 255.05 90.5704 255.841C91.0059 256.436 91.5145 256.663 92.2504 256.417C92.9923 256.17 93.6526 256.443 94.2466 256.899C95.7681 258.069 97.5991 258.426 99.3591 259.048C101.592 259.838 104.123 259.698 106.108 261.207C109.059 261.47 111.592 263.601 114.73 263.1C116.068 262.887 117.285 263.508 118.433 264.087C119.05 264.399 119.641 264.714 120.259 264.435C122.167 263.576 123.807 264.576 125.464 265.171C126.961 265.709 128.329 266.315 129.892 265.329C130.71 264.813 131.681 265.253 132.567 265.378C133.462 265.504 134.425 265.424 135.23 265.609C137.333 266.09 139.368 265.82 141.456 265.795C143.842 265.766 146.214 266.18 148.552 265.315C149.751 264.87 151.051 265.731 152.165 265.382C153.24 265.046 154.177 264.483 155.4 264.329C156.83 264.149 158.39 264.57 159.736 263.685C159.969 263.532 160.378 263.576 160.691 263.624C162.779 263.946 164.742 263.301 166.764 262.995C168.465 262.736 170.012 261.855 171.851 262.06C173.377 262.231 174.85 261.37 176.307 260.934C178.647 260.234 181.12 259.884 183.309 258.675C183.671 258.475 184.2 258.538 184.65 258.549C185.65 258.573 186.592 258.527 187.261 257.601C187.436 257.358 187.776 257.202 188.07 257.081C190.808 255.956 193.345 254.444 195.914 252.998C196.437 252.703 196.975 252.522 197.544 252.386C200.246 251.738 202.259 250.168 203.681 247.805C203.814 247.584 203.93 247.284 204.135 247.185C206.97 245.809 208.34 242.939 210.57 240.97C211.512 240.14 212.554 239.339 213.534 238.53C214.655 237.604 215.586 236.38 216.384 235.146C217.607 233.254 219.321 231.872 221.06 230.584C221.971 229.909 222.737 229.15 223.395 228.314C225.465 225.677 227.507 223.007 229.39 220.235C230.542 218.539 231.811 216.728 232.249 214.792C232.758 212.541 234.092 210.743 234.732 208.666C235.276 206.9 235.721 205.146 236.475 203.428C236.862 202.545 236.988 201.472 237.518 200.576C238.097 199.6 238.424 198.564 238.214 197.629Z" fill="#EC6732"/>
<path d="M140.109 39.4398C140.551 38.6232 140.14 38.1945 139.399 37.7786C138.721 37.3982 136.578 36.2903 135.802 36.1356C135.675 36.1099 135.555 36.0533 135.429 36.0224C135.074 35.9341 134.706 35.5915 134.358 35.9726C133.984 36.3816 134.132 36.8413 134.404 37.2262C135.081 38.1831 135.143 39.1447 134.499 40.1288C134.204 40.5794 134.298 40.9967 134.565 41.399C135.235 42.4103 135.351 43.5598 135.536 44.7235C135.799 46.3816 136.295 48.0035 137.044 49.513C137.613 50.6586 137.846 51.8232 137.734 53.0858C137.649 54.0405 137.517 54.9771 138.028 55.9152C138.329 56.4677 138.235 57.2065 138.08 57.8337C137.476 60.2835 138.569 62.7748 137.867 65.2156C138.578 66.833 138.165 68.553 138.237 70.2148C138.296 71.5703 137.45 72.9031 138.019 74.3477C138.119 74.602 137.782 75.0601 137.589 75.3907C137.394 75.7273 137.126 76.0292 137.115 76.439C137.088 77.3907 136.562 77.9862 135.783 78.445C135.515 78.602 135.217 78.8352 135.105 79.1054C134.481 80.6148 133.705 81.8692 131.817 81.9718C131.277 82.0013 130.988 82.6254 130.892 83.1228C130.792 83.642 131.265 83.8933 131.679 84.1077C133.299 84.9469 134.888 85.9107 136.809 84.8948C137.134 84.7228 137.571 84.7733 137.949 84.6941C139.152 84.4428 140.383 84.4322 141.596 84.2715C143.717 83.9899 145.54 82.4979 147.799 82.8526C148.19 82.9145 148.595 82.5907 148.678 82.199C148.963 80.8533 149.243 79.2435 148.27 78.3107C147.306 77.3869 146.947 76.2564 146.358 75.2209C145.738 74.1318 145.606 72.7673 146.188 71.6428C146.829 70.4028 146.623 69.4367 145.885 68.4126C145.404 67.7447 145.055 66.8639 145.544 66.2254C146.745 64.6579 146.586 63.1409 145.813 61.5145C145.679 61.233 145.65 60.879 145.652 60.559C145.669 58.6398 144.321 56.8918 144.94 54.8948C144.971 54.7952 144.883 54.6435 144.821 54.5318C143.748 52.602 142.918 50.6148 143.257 48.325C143.281 48.1582 143.159 47.953 143.066 47.7877C141.804 45.5326 141.507 42.9032 140.29 40.6277C140.119 40.3077 140.168 39.8707 140.109 39.4398ZM128.063 46.285C128.291 45.9386 128.419 44.965 128.69 44.7273C129.497 44.0232 129.382 43.193 128.958 42.4284C128.411 41.4458 128.232 40.5001 128.712 39.4624C128.939 38.9733 128.747 38.5907 128.386 38.2481C127.454 37.3628 127.406 36.3054 127.886 35.2066C128.214 34.4556 128.157 33.6881 128.185 32.9107C128.25 31.0949 128.785 30.4971 130.561 30.2073C132.532 29.8858 134.441 29.6624 136.494 30.1348C137.709 30.4148 139.137 30.0299 140.493 30.2873C142.148 30.602 144.02 32.1575 144.446 33.793C144.495 33.9786 144.443 34.2571 144.555 34.3507C146.498 35.9688 146.241 38.3771 146.813 40.4896C146.909 40.8465 147.175 41.1733 147.415 41.4715C147.794 41.9431 148.027 42.4677 148.113 43.0564C148.277 44.1847 148.346 45.0828 149.929 45.4405C151.755 45.8533 153.192 47.402 152.767 49.2835C152.523 50.3681 152.112 51.6858 152.042 52.6745C151.654 53.0262 151.175 52.6103 150.949 52.553C150.774 52.5084 150.534 52.4548 150.41 52.5371C150.168 52.6986 150.151 53.0194 150.327 53.2209C151.986 55.122 151.697 57.5975 152.28 59.8133C152.431 60.3892 152.111 60.9628 152.066 61.5326C151.978 62.6277 152.095 63.7296 152.336 64.8118C152.777 66.7937 152.807 68.7899 152.553 70.7998C152.506 71.1786 152.562 71.5703 152.57 71.9552C152.585 72.7228 152.992 73.0247 153.706 72.8194C156.109 72.1288 158.555 72.7054 160.979 72.5922C162.429 72.5243 163.948 72.8707 165.353 73.2994C166.169 73.5484 167.628 74.316 167.715 75.2986C167.817 76.4631 168.253 77.4058 169.014 78.2609C169.515 78.8239 169.245 79.2035 168.595 79.3733C167.877 79.5605 167.152 79.5258 166.508 79.1696C165.93 78.8496 164.657 78.6805 164.027 78.513C161.6 77.8654 159.134 77.7145 156.646 77.7545C155.106 77.7794 154.92 78.0405 155.509 79.405C155.984 80.5039 155.878 81.4948 154.953 82.2133C154.275 82.7409 154.127 83.2964 154.274 84.0647C154.36 84.5175 154.366 85.1069 154.055 85.3756C152.522 86.6979 151.118 88.2503 149.008 88.6941C147.57 88.9967 146.066 88.8043 144.641 89.3597C144.11 89.5673 143.57 89.7379 143.045 89.993C141.929 90.5356 140.815 90.8835 139.496 90.4315C138.179 89.9801 136.784 90.3847 135.466 90.6835C134.257 90.9582 133.131 90.7552 132.046 90.3394C131.03 89.9499 130.113 89.3477 128.941 89.4081C128.414 89.4352 127.989 88.9952 127.746 88.513C127.327 87.6843 126.573 87.1122 126.089 86.3726C125.186 84.9907 123.952 84.9922 122.683 85.3598C121.026 85.8398 119.075 86.4986 117.293 86.5431C117.05 86.5492 116.82 86.765 116.57 86.8148C115.849 86.9575 115.1 86.9348 114.658 86.2843C114.244 85.6767 114.392 83.9779 114.85 83.6171C115.526 83.0843 116.038 82.4481 116.489 81.7228C116.869 81.1122 117.33 80.519 118.225 80.9756C118.361 81.0443 119.091 81.1915 119.151 81.0941C120.061 79.5937 121.711 80.1582 122.964 79.6586C124.277 79.1356 125.549 78.8503 126.936 79.0299C127.356 79.0843 127.753 78.9673 127.947 78.5967C128.43 77.676 129.432 77.3847 130.087 76.7552C130.988 75.8911 131.667 74.7839 132.654 73.9371C133.183 73.4828 133.01 72.6654 132.771 72.0918C132.399 71.2058 132.54 70.3077 132.428 69.4179C132.066 66.5258 132.397 63.556 131.453 60.7288C131.354 60.4337 131.344 60.0782 131.398 59.7696C131.737 57.8382 131.655 55.6526 130.575 53.8518C130.33 53.4428 130.636 53.1137 130.757 52.7575C131.507 50.5371 130.973 49.5416 130.071 47.5077C129.657 46.7348 128.709 46.8352 128.063 46.285Z" fill="#EC6732"/>
<path d="M259.573 121.668C259.046 120.991 258.508 120.585 257.707 120.634C257.165 120.667 256.682 120.501 256.258 120.163C254.507 118.766 253.517 116.664 251.743 115.286C251.65 115.213 251.614 115.062 251.561 114.944C251.024 113.745 250.44 112.61 249.08 112.104C248.496 111.886 248.334 111.249 248.059 110.731C247.313 109.323 246.901 107.675 245.265 106.89C244.848 106.689 244.719 106.173 244.6 105.733C244.479 105.28 244.32 104.85 243.93 104.578C241.769 103.071 241.409 100.44 240.217 98.3597C239.017 96.2654 237.969 94.0646 236.668 92.0088C235.945 90.8639 235.233 89.6125 235.094 88.3212C234.947 86.9605 234.288 86.0865 233.523 85.1091C232.419 83.6986 231.741 81.968 230.277 80.8163C230.105 80.682 230.095 80.3439 230.007 80.1008C229.431 78.5039 228.85 76.9235 227.182 76.0774C226.714 75.8397 226.446 75.3672 226.24 74.8706C225.179 72.3144 223.505 70.2714 221.148 68.7944C220.538 68.4118 219.978 67.9227 219.686 67.2601C219.429 66.6744 219.049 66.3137 218.468 66.1031C217.959 65.9189 217.541 65.5672 217.336 65.0827C217.053 64.4171 216.498 64.1099 215.917 63.8314C214.08 62.9499 212.57 61.6367 211.123 60.2389C210.4 59.5401 209.594 59.0676 208.544 59.0412C206.701 58.9952 205.124 58.0827 203.827 56.974C202.347 55.7099 200.907 55.4276 199.184 56.0699C198.322 56.3914 197.456 56.4035 196.794 55.7906C195.617 54.7031 193.929 54.9914 192.692 54.1205C192.464 53.9612 192.196 54.0857 191.961 54.2171C190.168 55.2208 188.585 54.402 187.019 53.6095C186.624 53.4095 186.326 52.9793 185.808 53.2133C183.264 54.3605 180.566 53.2276 177.98 53.7537C176.294 52.9876 174.554 53.5982 172.84 53.5348C171.35 53.4797 169.87 53.2729 168.458 53.9869C168.195 54.1197 167.799 54.1114 167.501 54.0322C165.563 53.5144 163.639 54.1039 161.708 54.0797C161.224 54.0737 160.677 54.128 160.33 54.7944C161.314 55.7725 162.134 56.8993 162.998 57.9839C164.84 60.2971 166.991 62.3869 167.618 65.4442C167.683 65.7635 167.849 66.0352 168.106 66.2638C169.674 67.6616 170.896 69.2593 171.388 71.3771C171.558 72.1099 172.088 72.7514 172.62 73.3378C172.966 73.7189 173.385 74.128 173.514 74.5959C174.123 76.805 175.403 78.688 176.354 80.7288C176.518 81.0805 176.558 81.5363 176.91 81.722C178.064 82.331 178.384 83.4367 178.786 84.5454C179.046 85.2608 179.454 85.9212 179.889 86.5771C180.566 87.5982 181.615 88.4261 181.914 89.6344C182.304 91.2133 183.068 92.4963 184.261 93.5635C184.712 93.9665 184.844 94.5491 185.095 95.0729C185.594 96.1114 185.864 97.3227 186.785 98.0865C187.674 98.8238 188.295 99.6767 188.584 100.783C188.744 101.399 189.129 101.826 189.723 102.013C190.687 102.317 191.141 103.011 191.511 103.91C191.98 105.046 192.77 105.954 193.875 106.601C195.972 107.83 197.743 109.437 198.96 111.562C199.41 112.348 199.972 112.926 200.809 113.181C202.298 113.632 203.268 115.057 204.886 115.29C205.187 115.333 205.573 115.773 205.665 116.1C206.012 117.333 206.996 117.714 208.006 118.222C208.94 118.69 209.807 119.108 210.882 119.239C211.883 119.36 213.16 119.597 213.745 120.276C214.944 121.665 216.63 121.842 218.062 122.154C221.505 122.904 224.64 124.881 228.301 124.726C228.763 124.706 229.14 125.066 229.475 125.371C229.928 125.783 230.379 125.808 230.889 125.497C231.861 124.905 232.818 125.106 233.88 125.353C235.038 125.622 236.293 125.838 237.48 125.551C238.255 125.364 238.975 125.231 239.766 125.375C242.766 125.921 245.683 125.78 248.452 124.323C248.915 124.079 249.48 124.132 249.984 124.289C250.793 124.54 251.513 124.425 252.19 123.917C252.625 123.59 253.139 123.511 253.672 123.544C254.129 123.572 254.588 123.61 254.963 123.267C255.84 122.467 256.896 122.257 258.04 122.305C258.573 122.328 259.074 122.225 259.573 121.668ZM152.433 47.8571C155.345 46.9665 158.304 47.8216 161.098 46.9257C161.883 46.6744 162.634 46.5703 163.352 46.9914C164.464 47.6435 165.601 47.4797 166.753 47.202C168.621 46.7514 170.464 45.8933 172.415 46.8895C172.518 46.9416 172.703 46.9476 172.793 46.8888C174.174 45.9816 175.578 45.9839 177.043 46.6895C177.402 46.8623 177.794 46.651 178.163 46.5023C179.581 45.9318 181.022 45.6412 182.501 46.3038C182.808 46.442 183.117 46.4646 183.445 46.371C183.694 46.3001 183.987 46.1703 184.205 46.2412C185.834 46.7748 187.576 46.648 189.202 47.1076C189.83 47.285 190.401 47.4805 191.073 47.4442C192.417 47.371 193.819 47.0993 194.947 48.2088C195.064 48.325 195.33 48.3823 195.497 48.3423C197.218 47.9333 198.621 48.9929 200.175 49.2835C202.104 49.6442 203.805 50.6223 205.715 50.9484C206.305 51.0488 206.803 51.3567 207.321 51.6276C208.381 52.1823 209.331 53.0239 210.701 52.7227C211.008 52.6548 211.528 52.8956 211.738 53.162C212.662 54.334 214.176 54.6269 215.224 55.5989C215.406 55.7665 215.68 55.9612 215.895 55.9439C217.323 55.8246 218.236 56.525 218.88 57.7054C220.926 58.3371 221.527 60.3952 222.877 61.6888C224.688 63.4239 226.523 65.1544 228.412 66.8118C229.012 67.3386 229.595 67.7929 229.868 68.5612C229.932 68.7401 230.015 68.9506 230.157 69.0586C232.292 70.6827 233.409 73.0805 234.57 75.3378C235.564 77.2691 237.258 78.6473 238.194 80.4774C239.231 82.5039 240.906 84.1944 241.295 86.6193C241.501 87.9001 242.369 89.0805 242.531 90.4601C242.572 90.8035 242.852 91.2556 243.15 91.4095C244.409 92.0586 244.694 93.2608 245.037 94.4457C245.344 95.5106 245.661 96.5386 246.686 97.2065C247.185 97.5318 247.322 98.1544 247.39 98.7574C247.654 101.057 249.015 102.755 250.556 104.317C251.214 104.985 251.83 105.609 251.876 106.603C251.898 107.086 252.094 107.51 252.496 107.766C254.651 109.133 255.688 111.429 257.167 113.356C257.363 113.611 257.484 113.939 257.789 114.074C259.597 114.876 260.806 116.444 262.344 117.564C263.333 118.284 264.57 118.792 265.71 119.355C267.38 120.181 267.81 121.735 268.36 123.231C268.675 124.09 268.257 124.955 267.307 125.236C266.498 125.475 265.945 125.896 265.43 126.507C264.834 127.214 263.98 127.306 263.115 127.302C262.224 127.299 261.47 127.506 260.996 128.384C260.672 128.984 260.065 129.243 259.399 129.389C257.512 129.8 255.624 130.21 253.75 130.677C251.748 131.176 249.789 131.868 247.661 131.6C247.249 131.548 246.8 131.849 246.36 131.954C244.371 132.427 242.308 131.778 240.323 132.345C238.633 131.413 236.908 131.733 235.125 132.067C233.862 132.303 232.626 131.545 231.298 131.656C230.523 131.72 229.757 131.635 229.034 132.023C228.124 132.511 227.233 132.354 226.5 131.7C225.904 131.168 225.222 131.092 224.514 131.068C221.54 130.966 218.83 130.015 216.295 128.524C215.598 128.115 214.812 127.994 214.071 127.852C212.169 127.484 210.535 126.337 208.596 126.099C207.833 126.005 207.364 125.419 207.059 124.735C206.871 124.312 206.672 123.757 206.181 123.799C204.688 123.928 203.714 122.705 202.382 122.456C202.195 122.421 201.973 122.354 201.852 122.223C200.769 121.051 199.233 120.292 198.284 119.131C196.947 117.496 195.208 116.622 193.539 115.583C192.732 115.08 191.993 114.644 191.775 113.662C191.686 113.265 191.535 112.899 191.135 112.747C188.763 111.848 187.579 109.876 186.566 107.742C186.429 107.455 186.31 107.061 186.07 106.939C184.501 106.147 183.852 104.677 183.071 103.24C182.566 102.308 182.185 101.194 181.067 100.69C180.855 100.594 180.674 100.33 180.575 100.101C179.488 97.6216 177.715 95.5197 176.577 93.1023C175.569 90.9612 173.938 89.2314 172.98 87.168C172.068 85.2027 170.223 83.6639 170.258 81.1831C170.27 80.2722 169.609 79.2457 168.85 78.4835C168.486 78.1182 167.988 77.731 167.892 77.2812C167.495 75.4382 166.323 73.9627 165.662 72.2548C165.592 72.0744 165.56 71.8548 165.436 71.7257C164.274 70.5272 163.742 69.0125 163.206 67.482C162.759 66.208 162.307 64.9061 160.825 64.3801C160.563 64.2865 160.28 63.931 160.218 63.6503C159.887 62.1348 158.609 61.2382 157.92 60.0057C156.977 58.3182 155.532 57.1831 154.056 56.3054C152.35 55.2918 152.037 53.9054 151.907 52.285C151.782 50.722 152.256 49.214 152.433 47.8571Z" fill="#3CA178"/>
<path d="M37.0635 108.524C38.665 109.532 39.976 110.133 41.5179 110.24C42.6167 110.316 43.7752 110.095 44.782 110.299C47.6016 110.868 50.4114 111.446 53.2771 111.728C53.339 111.734 53.3994 111.77 53.4582 111.797C56.5277 113.205 59.8024 112.277 62.9639 112.629C63.0854 112.643 63.2205 112.588 63.3413 112.545C65.5352 111.754 67.8862 111.732 70.1322 111.109C72.1065 110.56 74.0748 110.17 75.9141 109.159C77.0514 108.534 78.0303 107.628 79.2575 107.197C81.7979 106.305 82.1722 106.114 84.1631 104.293C84.3518 104.12 84.579 103.979 84.8077 103.862C86.2567 103.117 87.1601 101.43 89.0416 101.418C89.1918 101.416 89.3465 101.192 89.4877 101.059C91.4922 99.1649 94.1797 98.1181 95.9118 95.8796C96.0575 95.6917 96.376 95.6479 96.5835 95.4955C97.5179 94.8125 98.5126 94.1944 99.0922 93.1287C99.7352 91.9476 100.643 91.0744 101.943 90.6125C102.875 90.2804 103.417 89.574 103.515 88.5755C103.573 87.9793 103.612 87.217 104.138 87.0072C106.002 86.263 106.825 84.6879 107.796 83.1136C108.241 82.3928 108.982 81.7732 109.518 81.0381C110.608 79.5423 111.273 77.6955 113.074 76.7747C113.54 76.537 113.474 76.0034 113.414 75.5408C113.304 74.7083 113.566 74.0049 114.158 73.4178C115.41 72.1747 115.935 70.5151 116.337 68.9166C116.649 67.6744 117.125 66.5966 117.838 65.6004C118.566 64.5815 118.977 63.4351 119.282 62.2608C119.786 60.3196 120.128 58.331 122.11 57.2178C122.51 56.9928 122.691 56.5385 122.863 56.1083C123.387 54.8034 123.177 54.6344 121.756 54.577C120.402 54.5227 119.495 55.5355 118.301 55.7423C116.396 56.0729 114.764 57.4472 112.696 57.1725C112.445 57.1393 112.158 57.5023 111.867 57.6351C111.456 57.823 111.034 58.0804 110.602 58.1121C108.467 58.2683 106.565 59.4208 104.396 59.4864C103.59 59.5113 102.793 59.8849 102.038 60.3219C100.937 60.9596 99.5918 61.0827 98.5262 61.8585C98.2016 62.0947 97.7677 62.0381 97.3964 61.8804C95.8794 61.2374 94.6711 61.9249 93.7873 62.9913C92.8854 64.0789 91.8703 64.6789 90.4967 64.8019C90.1216 64.8351 89.708 64.9476 89.4009 65.1551C87.2416 66.6132 84.4613 66.8849 82.5247 68.7732C82.3148 68.9778 81.9231 69.1196 81.6326 69.0947C80.4975 68.9974 79.6733 69.5921 78.7858 70.1551C77.2786 71.1106 75.5065 71.7091 74.6326 73.463C74.5548 73.6193 74.345 73.7196 74.1813 73.823C72.1797 75.091 70.2997 76.6608 68.139 77.5378C65.7405 78.5106 64.6922 81.0819 62.2665 81.8857C62.0454 81.9589 61.9216 82.414 61.8099 82.7136C61.3964 83.8223 60.6092 84.3989 59.4318 84.3461C58.7352 84.3144 58.2945 84.6261 58.0696 85.217C57.6839 86.2321 57.1247 87.0495 56.0643 87.4608C55.6696 87.614 55.5533 88.0162 55.4514 88.4034C55.299 88.9808 55.0665 89.5521 54.5428 89.8585C53.8492 90.2638 53.296 90.7513 52.933 91.4811C52.7609 91.8276 52.4303 92.1 52.0416 92.2012C50.2537 92.6653 49.6235 94.2095 49.0001 95.6419C48.5616 96.6502 47.9609 97.3242 46.936 97.4683C46.1073 97.5845 45.7828 98.1076 45.3254 98.6759C43.6824 100.72 42.7337 103.279 40.7307 105.03C39.5148 106.092 38.9767 107.788 37.0635 108.524ZM74.3835 116.577C73.7065 116.244 73.1284 116.454 72.5684 116.867C72.1322 117.189 71.6016 117.228 71.0816 117.258C70.6847 117.28 70.2364 117.298 69.9835 117.588C68.3631 119.443 66.1533 118.869 64.1382 118.995C63.425 119.04 62.736 118.969 62.0665 119.31C61.4658 119.617 60.7918 119.619 60.1564 119.471C59.133 119.232 58.1526 119.124 57.1065 119.448C56.4937 119.638 55.7994 119.499 55.342 118.91C54.9579 118.415 54.4228 118.135 53.8409 118.092C52.5428 117.994 51.2643 117.902 50.0741 117.283C49.8228 117.153 49.4416 117.234 49.1277 117.274C48.8092 117.314 48.459 117.563 48.1941 117.483C46.6099 117.007 44.8703 117.034 43.3948 116.432C42.0914 115.901 40.8386 115.659 39.5103 115.643C37.7503 115.625 36.0318 115.622 34.4386 114.658C33.7322 114.231 32.8801 113.906 32.065 113.826C30.4764 113.671 29.382 112.579 28.0869 111.905C26.6416 111.153 26.5979 109.07 27.979 108.157C28.9918 107.488 29.8114 106.75 30.342 105.665C30.6469 105.04 31.2469 104.768 31.8665 104.529C32.8756 104.139 33.7262 103.434 34.1118 102.486C34.6733 101.105 35.693 100.313 36.8952 99.6313C38.133 98.9287 39.1443 98.2344 39.5005 96.5664C39.7541 95.3785 40.6975 94.2132 41.9601 93.4366C43.2635 92.6336 44.293 91.4532 45.099 90.0925C46.1631 88.2947 47.4288 86.651 49.3843 85.7144C49.7473 85.5408 50.1292 85.4019 50.1926 84.9612C50.4771 82.9657 52.173 82.1755 53.5186 81.1295C55.8039 79.3521 57.8922 77.3249 60.3397 75.7498C60.6409 75.5566 60.8469 75.1513 60.9979 74.8019C61.425 73.8132 62.1096 73.2253 63.216 73.1944C63.5382 73.1853 63.9594 73.2313 64.0922 72.9083C64.6341 71.5921 65.782 71.2064 66.9964 70.8713C67.2273 70.8072 67.505 70.6472 67.6145 70.4502C68.536 68.7974 70.2145 68.4396 71.816 67.9664C72.585 67.7393 73.4847 67.454 73.779 66.8087C74.3782 65.4947 75.6945 65.1106 76.5858 64.2072C76.8703 63.9196 77.2582 63.6329 77.6092 63.7113C79.5511 64.1453 80.7224 62.331 82.4333 62.1136C82.6582 62.0849 82.936 61.8842 83.0514 61.6834C83.6703 60.6079 84.7314 60.5378 85.7639 60.1408C87.1005 59.6276 88.4967 59.0683 89.7413 58.2902C90.2997 57.94 90.8733 57.691 91.4847 57.4623C93.1413 56.8412 95.0877 56.9898 96.4575 55.5778C96.6567 55.3725 97.062 55.2751 97.3692 55.2804C100.164 55.3325 102.618 54.0449 105.221 53.3408C105.794 53.1853 106.316 52.9559 106.819 52.6487C107.264 52.3762 107.806 51.9936 108.267 52.2487C109.424 52.891 110.218 52.217 111.088 51.6796C111.584 51.3725 112.144 50.8978 112.69 51.0706C114.874 51.7589 116.509 50.1883 118.421 49.7921C121.019 49.254 123.425 48.0947 125.961 47.3476C126.398 47.2185 126.762 47.0706 127.131 46.7483C128.101 45.9008 129.264 46.0396 129.902 47.1355C131.2 49.3649 131.793 51.6547 130.264 54.0902C129.371 55.5113 128.663 57.0472 127.829 58.5068C127.581 58.9408 127.611 59.3725 127.587 59.82C127.542 60.6819 127.303 61.4525 126.756 62.1604C125.974 63.1732 125.811 64.5672 124.793 65.4502C125.023 67.4902 124.119 69.0472 122.697 70.3861C122.653 70.4268 122.608 70.5083 122.618 70.5596C123.137 73.1325 120.838 74.3966 119.867 76.2517C118.83 78.2336 118.14 80.4412 116.547 82.1355C116.108 82.6019 115.751 83.1498 115.236 83.5559C114.62 84.0419 114.297 84.6095 114.713 85.4064C114.951 85.8615 114.904 86.251 114.388 86.5453C112.862 87.4185 111.93 88.9378 110.639 90.0744C109.874 90.7476 109.436 91.6879 108.938 92.6072C108.122 94.1128 106.928 95.4562 105.713 96.6895C104.587 97.8313 103.255 98.8238 102.118 99.9174C100.953 101.037 99.6582 102.003 98.3865 102.865C96.5269 104.124 94.9186 105.671 93.0862 106.939C92.8748 107.085 92.6379 107.301 92.4114 107.302C91.2681 107.311 90.5065 107.862 89.9164 108.801C89.6741 109.187 89.1941 109.333 88.7314 109.411C88.3382 109.477 87.9443 109.596 87.7533 109.972C87.225 111.01 86.3013 111.42 85.2341 111.578C84.579 111.674 84.2205 112.065 83.9088 112.597C83.4847 113.32 82.8213 113.7 81.9775 113.722C80.8492 113.751 79.8401 114.249 78.7828 114.547C77.9865 114.771 77.2092 115.051 76.6507 115.805C76.1194 116.522 75.2907 116.764 74.3835 116.577Z" fill="#3CA178"/>
<path d="M144.901 148.424C145.11 150.402 144.638 151.078 142.923 151.593C142.482 151.727 142.055 151.91 141.618 152.057C140.77 152.343 140.369 152.946 140.584 153.796C140.914 155.09 140.146 156.307 140.417 157.597C140.511 158.041 140.493 158.515 140.624 158.966C140.905 159.935 141.2 160.169 142.082 159.787C142.706 159.517 143.29 159.361 143.923 159.567C144.397 159.721 144.667 159.471 145.009 159.23C146.027 158.514 147.806 158.502 148.753 159.168C149.149 159.446 149.403 159.825 149.483 160.311C149.674 161.5 147.966 163.845 146.773 164.11C145.025 164.497 143.255 164.591 141.489 164.771C139.593 164.965 137.839 164.902 136.018 164.51C135.236 164.342 134.399 164.343 133.594 164.388C132.617 164.442 131.75 164.14 130.935 163.705C130.129 163.274 129.464 162.636 128.428 162.629C127.855 162.626 127.381 162.092 127.304 161.451C127.204 160.625 126.892 159.921 126.477 159.197C125.836 158.079 126.539 156.931 127.855 156.906C129.255 156.878 130.638 156.843 131.239 158.635C131.563 159.6 133.87 160.005 134.823 159.493C135.21 159.285 135.298 158.946 135.219 158.62C134.861 157.132 135.183 155.688 135.417 154.233C135.553 153.389 135.314 152.888 134.374 152.577C132.754 152.043 131.483 150.873 130.247 149.737C129.134 148.715 129.261 147.616 130.476 146.668C130.931 146.313 131.402 146.005 131.737 145.494C132.578 144.208 133.786 143.695 135.311 144.017C136.015 144.165 136.738 144.076 137.383 143.891C139.113 143.398 140.552 143.77 141.842 144.984C142.128 145.253 142.525 145.414 142.888 145.588C144.193 146.214 145.116 147.082 144.901 148.424Z" fill="#EC6732"/>
<path d="M157.12 140.142C157.76 142.352 156.173 143.881 154.974 145.449C153.822 146.955 150.422 146.948 149.17 145.478C148.176 144.31 147.28 143.001 146.954 141.425C146.42 138.832 148.077 136.078 150.609 135.354C151.39 135.131 152.168 134.902 152.953 134.698C153.779 134.483 154.489 134.705 154.879 135.474C155.176 136.062 155.548 136.492 156.091 136.881C157.155 137.641 157.29 138.801 157.12 140.142Z" fill="#EC6732"/>
<path d="M122.03 134.402C123.494 134.593 125.001 134.769 125.66 136.477C125.813 136.871 126.118 137.137 126.38 137.443C126.652 137.759 126.939 138.194 126.786 138.542C126.287 139.678 126.727 140.792 126.709 141.913C126.676 143.925 125.896 144.786 123.869 145.191C123.586 145.248 123.25 145.236 123.035 145.391C121.605 146.42 120.377 145.657 119.183 144.951C118.054 144.285 117.57 143.194 117.466 141.909C117.42 141.333 117.316 140.762 117.233 140.189C117.155 139.654 117.176 139.123 117.561 138.716C118.061 138.186 118.228 137.506 118.497 136.871C119.151 135.332 120.362 134.613 122.03 134.402Z" fill="#EC6732"/>
<path d="M270.663 179.347C271.124 178.956 271.721 178.62 272.078 178.113C272.858 177.008 273.939 176.414 275.084 175.774C276.005 175.26 277.015 175.043 277.915 174.546C278.418 174.269 279.131 173.897 278.582 173.236C277.806 172.3 277.603 171.148 277.164 170.097C276.632 168.826 275.459 167.786 275.718 166.189C275.775 165.836 275.299 165.779 274.964 165.941C274.525 166.153 274.375 166.574 274.145 166.972C273.66 167.812 273.123 168.769 272.25 169.136C270.675 169.798 269.488 171.081 267.81 171.594C266.524 171.986 266.527 172.212 267.367 173.327C268.5 174.83 269.481 176.374 269.736 178.296C269.796 178.743 270.148 179.097 270.663 179.347ZM282.644 177.715C280.794 177.882 278.773 177.747 277.238 178.934C275.705 180.12 274.111 181.232 273.143 183.155C272.388 184.653 271.915 186.071 271.77 187.7C271.688 188.632 271.617 189.737 270.293 189.893C269.256 190.015 267.999 189.108 267.788 187.881C267.417 185.726 266.892 183.581 266.893 181.381C266.893 180.644 266.85 179.943 266.505 179.311C265.761 177.947 264.979 176.617 264.469 175.127C264.121 174.112 263.102 173.862 262.123 173.64C260.696 173.317 259.468 172.635 258.704 171.328C257.996 170.117 258.278 169.417 259.61 169.002C260.355 168.771 261.127 168.487 261.899 168.648C264.359 169.161 266.367 168.133 268.485 167.091C269.865 166.411 270.776 165.218 272.085 164.525C272.247 164.439 272.419 164.276 272.481 164.109C273.238 162.078 274.865 160.426 274.928 158.075C274.965 156.665 275.856 156.23 277.461 156.575C278.529 156.805 279.345 157.946 278.876 158.927C277.551 161.697 278.412 164.256 279.502 166.759C280.34 168.684 281.258 170.592 282.536 172.291C282.825 172.677 283.175 172.891 283.622 173.048C284.042 173.195 284.443 173.433 284.805 173.695C286.02 174.574 286.262 175.137 285.896 176.087C285.385 177.413 284.623 177.91 283.24 177.813C283.046 177.799 282.855 177.751 282.644 177.715Z" fill="#EC6732"/>
<path d="M54.4574 48.2449C53.4876 47.5876 52.9223 46.9204 52.2665 46.8155C50.6159 46.5513 49.8219 45.1604 48.6612 44.3C47.3404 43.3219 46.0144 43.2072 45.2514 44.6608C44.3925 46.2955 43.2929 47.7679 42.3035 49.3053C41.6861 50.2645 41.908 50.7242 42.5782 51.3702C43.9329 52.6774 45.6461 53.5317 46.954 54.9C47.3797 55.346 47.8084 55.2366 48.0197 54.6117C48.1291 54.2887 48.3148 53.9657 48.3216 53.6396C48.3563 52.0623 49.4386 51.2125 50.5593 50.4396C51.6642 49.6774 52.7653 48.8962 54.4574 48.2449ZM47.1238 35.6374C48.3812 37.4932 48.6574 39.9128 50.9246 41.2449C52.4152 42.1204 53.5548 43.5755 55.2469 44.2736C55.8446 44.5196 56.4076 44.7128 57.0144 44.6374C58.2944 44.4766 59.2227 45.1551 60.2046 45.7951C61.1502 46.4117 61.3231 47.346 61.2846 48.3121C61.2469 49.2653 60.5019 49.7068 59.6702 49.9634C58.6189 50.2879 57.5714 50.617 56.6129 51.1732C54.6053 52.3393 52.8333 53.7325 51.631 55.7936C50.1065 58.4087 50.3691 61.186 50.8431 63.9476C51.0159 64.9528 50.9744 65.8585 50.6559 66.7589C50.2869 67.8049 49.3616 68.3581 48.4272 68.2343C47.502 68.1113 46.9118 67.386 46.8174 66.1634C46.5389 62.5279 45.2174 59.3091 43.0838 56.3717C41.7669 54.5566 39.6612 53.9559 37.9155 52.8027C37.628 52.6125 37.2348 52.7627 36.9299 52.9287C35.6197 53.6427 34.5095 52.9015 33.4325 52.3694C32.5012 51.9106 32.3978 50.9166 33.0823 50.1128C33.5306 49.586 34.0733 49.1302 34.7714 48.9868C35.7986 48.7755 36.6597 48.2245 37.5812 47.7755C41.271 45.9777 42.8899 42.8615 43.2876 38.9702C43.4325 37.5543 43.3948 36.1196 43.4718 34.6947C43.4982 34.2208 43.545 33.7204 43.7201 33.2872C44.1457 32.2298 45.0053 32.0736 45.8076 32.897C46.5397 33.6472 46.9487 34.5815 47.1238 35.6374Z" fill="#EC6732"/>
</g>
</svg>
